<svg xmlns="http://www.w3.org/2000/svg" xmlns:xlink="http://www.w3.org/1999/xlink" width="700" height="273.937" viewBox="0 0 700 273.937">
  <defs>
    <clipPath id="clip-path">
      <rect id="Rectangle_125" data-name="Rectangle 125" width="700" height="273.937" fill="none"/>
    </clipPath>
  </defs>
  <g id="FT_Logo_R" data-name="FT Logo R" clip-path="url(#clip-path)">
    <g id="Rectangle_126" data-name="Rectangle 126" transform="translate(30 77.968)" fill="#fff" stroke="#707070" stroke-width="1">
      <rect width="639" height="111" stroke="none"/>
      <rect x="0.5" y="0.5" width="638" height="110" fill="none"/>
    </g>
    <path id="Path_273" data-name="Path 273" d="M700,205.433H0V47.408L700,0ZM47.481,157.348H62.29V132.967H78.86V120.686H62.29V106.058H94.8V94.138H47.481Zm72.846,0h11.648V112.469H117.8v22.936c-.09,7.585-4.063,11.558-9.481,11.558s-7.946-3.161-7.946-9.842V112.469H86.1V141c0,10.294,5.147,17.608,17.247,17.608,6.592,0,12.552-2.89,15.893-8.849ZM137.9,112.469v44.878h14.267V135.315c.09-7.766,4.064-11.649,9.843-11.649,5.237,0,7.946,2.528,7.946,10.294v23.387h14.267V129.174c0-10.746-5.057-17.879-16.705-17.879-7.224,0-13.184,3.251-16.615,9.3l-1.174-8.127Zm86.29,44.878h12.19V94.138H222.113v23.3c-2.89-3.974-7.314-6.141-13.184-6.141-11.919,0-19.775,8.217-19.775,24.11,0,15.26,7.4,23.207,18.963,23.207,7.133,0,12.371-2.89,15.351-8.217Zm-1.9-22.394c0,8.94-4.154,13-9.933,13-6.321,0-9.391-4.154-9.391-12.912,0-9.3,3.25-13.184,9.3-13.184,5.779,0,10.023,3.7,10.023,13.094m19.039-35.668c0,4.967,2.979,7.314,8.217,7.314s8.217-2.348,8.217-7.314c0-5.147-2.98-7.4-8.217-7.4s-8.217,2.258-8.217,7.4m1.083,58.062h14.267V112.469H242.415Zm19.817-44.878v44.878H276.5V135.315c.09-7.766,4.064-11.649,9.843-11.649,5.237,0,7.946,2.528,7.946,10.294v23.387h14.267V129.174c0-10.746-5.057-17.879-16.705-17.879-7.224,0-13.184,3.251-16.615,9.3l-1.174-8.127Zm98.028,0H348.7l-1.174,6.5c-2.89-5.147-8.037-7.676-14.719-7.676-11.919,0-19.595,7.676-19.595,22.936,0,15.08,7.495,22.575,18.782,22.575,6.682,0,11.288-2.528,14.087-7.495v6.411c0,7.856-4.425,11.378-11.558,11.378-5.056,0-9.21-1.806-11.919-6.592l-8.037,6.953c3.612,7.224,11.649,9.843,20.5,9.843,14.629,0,25.193-6.862,25.193-21.762ZM346.174,133.96c0,8.4-3.973,12.461-9.933,12.461-6.14,0-9.391-3.882-9.391-12.371,0-8.308,3.251-12.281,9.391-12.281,5.779,0,9.933,3.883,9.933,12.191m135.234,23.387h14.267V139.559c.09-9.662,4.876-15.532,14.9-14.719l-.09-13.545a16.7,16.7,0,0,0-16.073,10.114l-1.174-8.939H481.408Zm34.1,0h14.087v-9.662l5.508-6.05,10.745,15.712h15.713l-17.247-24.922,17.067-19.956H545.937l-16.615,20.5.362-38.829H515.506Zm67.109,1.264c9.3,0,16.344-3.251,20.047-10.2l-8.579-5.237c-2.258,4.244-5.508,5.688-10.385,5.688-6.5,0-10.2-2.89-10.836-10.023h30.16a31.89,31.89,0,0,0,.361-4.876c0-12.732-6.14-22.665-21.13-22.665-14.628,0-22.936,8.849-22.936,23.93,0,15.892,9.03,23.387,23.3,23.387m-.632-37.384c5.147,0,7.946,3.07,8.308,9.391H572.863c.542-6.411,3.882-9.391,9.12-9.391m37.126,39.822c-1.535,4.425-4.515,5.689-7.676,5.689a16.037,16.037,0,0,1-6.5-1.445l-1.445,10.2a24.925,24.925,0,0,0,9.662,1.716c8.4,0,14.99-2.709,18.512-11.558l20.859-53.186H637.891l-10.113,29.888L617.3,112.469H602.584l17.7,45.059ZM384.85,94.138V106.6h19.324v50.748h14.809V106.6h19.324V94.138Zm78.986,63.209h11.649V112.469H461.307v22.936c-.09,7.585-4.064,11.558-9.482,11.558s-7.946-3.161-7.946-9.842V112.469H429.612V141c0,10.294,5.147,17.608,17.247,17.608,6.591,0,12.551-2.89,15.892-8.849Z" fill="#ea2427"/>
  </g>
</svg>
