<?xml version="1.0" encoding="UTF-8"?><svg id="Layer_2" xmlns="http://www.w3.org/2000/svg" viewBox="0 0 1395.35 457.11"><defs><style>.cls-1{fill:#f8f3ea;}.cls-2{fill:#e92427;}</style></defs><g id="Layer_1-2"><polygon class="cls-2" points="1395.35 457.11 0 457.11 0 165.51 1395.35 71.01 1395.35 457.11"/><path class="cls-1" d="m94.65,361.26h29.52v-48.6h33.03v-24.48h-33.03v-29.16h64.8v-23.76h-94.32v126Zm145.21,0h23.22v-89.46h-28.26v45.72c-.18,15.12-8.1,23.04-18.9,23.04s-15.84-6.3-15.84-19.62v-49.14h-28.44v56.88c0,20.52,10.26,35.1,34.38,35.1,13.14,0,25.02-5.76,31.68-17.64l2.16,15.12Zm35.03-89.46v89.46h28.44v-43.92c.18-15.48,8.1-23.22,19.62-23.22,10.44,0,15.84,5.04,15.84,20.52v46.62h28.44v-56.16c0-21.42-10.08-35.64-33.3-35.64-14.4,0-26.28,6.48-33.12,18.54l-2.34-16.2h-23.58Zm172.01,89.46h24.3v-126h-28.44v46.44c-5.76-7.92-14.58-12.24-26.28-12.24-23.76,0-39.42,16.38-39.42,48.06s14.76,46.26,37.8,46.26c14.22,0,24.66-5.76,30.6-16.38l1.44,13.86Zm-3.78-44.64c0,17.82-8.28,25.92-19.8,25.92-12.6,0-18.72-8.28-18.72-25.74,0-18.54,6.48-26.28,18.54-26.28s19.98,7.38,19.98,26.1Zm37.95-71.1c0,9.9,5.94,14.58,16.38,14.58s16.38-4.68,16.38-14.58-5.94-14.76-16.38-14.76-16.38,4.5-16.38,14.76Zm2.16,26.28v89.46h28.44v-89.46h-28.44Zm39.5,0v89.46h28.44v-43.92c.18-15.48,8.1-23.22,19.62-23.22,10.44,0,15.84,5.04,15.84,20.52v46.62h28.44v-56.16c0-21.42-10.08-35.64-33.3-35.64-14.4,0-26.28,6.48-33.12,18.54l-2.34-16.2h-23.58Zm195.41,0h-23.04l-2.34,12.96c-5.76-10.26-16.02-15.3-29.34-15.3-23.76,0-39.06,15.3-39.06,45.72s14.94,45,37.44,45c13.32,0,22.5-5.04,28.08-14.94v12.78c0,15.66-8.82,22.68-23.04,22.68-10.08,0-18.36-3.6-23.76-13.14l-16.02,13.86c7.2,14.4,23.22,19.62,40.86,19.62,29.16,0,50.22-13.68,50.22-43.38v-85.86Zm-28.08,42.84c0,16.74-7.92,24.84-19.8,24.84s-18.72-7.74-18.72-24.66,6.48-24.48,18.72-24.48c11.52,0,19.8,7.74,19.8,24.3Zm269.57,46.62h28.44v-35.46c.18-19.26,9.72-30.96,29.7-29.34l-.18-27c-14.22-.36-25.92,7.02-32.04,20.16l-2.34-17.82h-23.58v89.46Zm67.97,0h28.08v-19.26l10.98-12.06,21.42,31.32h31.32l-34.38-49.68,34.02-39.78h-30.78l-33.12,40.86.72-77.4h-28.26v126Zm133.77,2.52c18.54,0,32.58-6.48,39.96-20.34l-17.1-10.44c-4.5,8.46-10.98,11.34-20.7,11.34-12.96,0-20.34-5.76-21.6-19.98h60.12c.54-3.6.72-6.66.72-9.72,0-25.38-12.24-45.18-42.12-45.18s-45.72,17.64-45.72,47.7c0,31.68,18,46.62,46.44,46.62Zm-1.26-74.52c10.26,0,15.84,6.12,16.56,18.72h-34.74c1.08-12.78,7.74-18.72,18.18-18.72Zm74,79.38c-3.06,8.82-9,11.34-15.3,11.34-4.32,0-8.28-.9-12.96-2.88l-2.88,20.34c6.12,2.34,11.52,3.42,19.26,3.42,16.74,0,29.88-5.4,36.9-23.04l41.58-106.02h-29.16l-20.16,59.58-20.88-59.58h-29.34l35.28,89.82-2.34,7.02Zm-466.96-133.38v24.84h38.52v101.16h29.52v-101.16h38.52v-24.84h-106.56Zm157.45,126h23.22v-89.46h-28.26v45.72c-.18,15.12-8.1,23.04-18.9,23.04s-15.84-6.3-15.84-19.62v-49.14h-28.44v56.88c0,20.52,10.26,35.1,34.38,35.1,13.14,0,25.02-5.76,31.68-17.64l2.16,15.12Z"/><polygon class="cls-2" points="0 94.51 0 141.37 1395.35 46.85 1395.35 0 0 94.51"/></g></svg>