<svg id="Expert_Icon" xmlns="http://www.w3.org/2000/svg" width="200" height="160.3" viewBox="0 0 200 160.3">
  <path id="Ruby_Texture_PT" d="M200,0,0,16.2V160.3H200Z" fill="#6d6b6b"/>
  <g id="Group_327" data-name="Group 327" transform="translate(50 41)">
    <path id="Path_292" data-name="Path 292" d="M734.29,945.2c-7.8,0-13.6,2.1-15.6,5.4h31.1C747.89,947.3,742.09,945.2,734.29,945.2Z" transform="translate(-684.29 -875.196)" fill="#f8f3ea"/>
    <circle id="Ellipse_1" data-name="Ellipse 1" cx="8.2" cy="8.2" r="8.2" transform="translate(41.8 40)" fill="#f8f3ea"/>
    <path id="Path_293" data-name="Path 293" d="M475.764,349.127a50,50,0,1,0,50,50A50.018,50.018,0,0,0,475.764,349.127Zm18.1,28.3,2-6.2,2,6.2h6.5l-5.3,3.8,2,6.2-5.3-3.8-5.3,3.8,2-6.2-5.3-3.8Zm-20.1-8.2,2-6.2,2,6.2h6.5l-5.3,3.8,2,6.2-5.3-3.8-5.3,3.8,2-6.2-5.3-3.8Zm2,14.5a13.6,13.6,0,1,1-13.6,13.6A13.614,13.614,0,0,1,475.764,383.727Zm-22.2-6.3,2-6.2,2,6.2h6.5l-5.3,3.8,2,6.2-5.3-3.8-5.3,3.8,2-6.2-5.3-3.8Zm-8.7,28.9,2-6.2-5.3-3.8h6.5l2-6.2,2,6.2h6.7l-5.3,3.8,2,6.2-5.3-3.8Zm52.7,23.7h-43.6v-2.7c0-6.3,5.7-13.6,21.8-13.6s21.8,7.3,21.8,13.6Zm9.1-24.4-5.3-3.8-5.3,3.8,2-6.2-5.3-3.8h6.5l2-6.2,2,6.2h6.5l-5.3,3.8Z" transform="translate(-425.764 -349.127)" fill="#f8f3ea"/>
  </g>
</svg>
