<svg xmlns="http://www.w3.org/2000/svg" xml:space="preserve" width="6.3in" height="6.30002in" version="1.1" style="shape-rendering:geometricPrecision; text-rendering:geometricPrecision; image-rendering:optimizeQuality; fill-rule:evenodd; clip-rule:evenodd"
viewBox="0 0 4260.55 4260.57"
 xmlns:xlink="http://www.w3.org/1999/xlink"
 xmlns:xodm="http://www.corel.com/coreldraw/odm/2003">
 <defs>
  <style type="text/css">
   <![CDATA[
    .fil0 {fill:black;fill-rule:nonzero}
   ]]>
  </style>
 </defs>
 <g id="Layer_x0020_1">
  <metadata id="CorelCorpID_0Corel-Layer"/>
  <path class="fil0" d="M3881.84 3692.5c0,105.19 -84.17,189.36 -189.36,189.36l-3124.41 0c-105.19,0 -189.36,-84.17 -189.36,-189.36l0 -3124.41c0,-105.19 84.17,-189.36 189.36,-189.36l1230.83 0 0 -378.72 -1230.83 0c-315.61,0 -568.07,252.47 -568.07,568.07l0 3124.41c0,315.61 252.47,568.07 568.07,568.07l3124.41 -0c315.61,0 568.07,-252.47 568.07,-568.07l0 -1230.82 -378.72 0 0 1230.82zm-1420.19 -3692.49l0 378.72 1151.93 0 -1488.56 1488.56 268.25 268.25 1488.56 -1488.56 0 1151.93 378.71 0 0 -1798.9 -1798.89 0.01z"/>
 </g>
</svg>
