<?xml version="1.0" encoding="UTF-8"?>
<!DOCTYPE svg PUBLIC "-//W3C//DTD SVG 1.1//EN" "http://www.w3.org/Graphics/SVG/1.1/DTD/svg11.dtd">
<!-- Creator: CorelDRAW 2021 (64-Bit) -->
<svg xmlns="http://www.w3.org/2000/svg" xml:space="preserve" width="2.0913in" height="3.32311in" version="1.1" style="shape-rendering:geometricPrecision; text-rendering:geometricPrecision; image-rendering:optimizeQuality; fill-rule:evenodd; clip-rule:evenodd"
viewBox="0 0 1158.65 1841.12"
 xmlns:xlink="http://www.w3.org/1999/xlink"
 xmlns:xodm="http://www.corel.com/coreldraw/odm/2003">
 <defs>
  <style type="text/css">
   <![CDATA[
    .fil0 {fill:#2C2A2A}
    .fil4 {fill:#2D2C2C}
    .fil2 {fill:#A32C2C}
    .fil1 {fill:#DC2B2B}
    .fil3 {fill:#2D2C2C;fill-rule:nonzero}
   ]]>
  </style>
 </defs>
 <g id="Layer_x0020_1">
  <metadata id="CorelCorpID_0Corel-Layer"/>
  <g id="_2354721592992">
   <polygon class="fil0" points="782.6,762.97 679.97,762.97 679.97,1497.76 468.56,1497.76 469.59,1497.76 469.59,877.92 366.96,877.92 366.96,1497.76 186.34,1497.76 187.36,1039.03 84.61,1039.03 84.74,1505.97 1068.93,1505.97 1069.95,693.19 967.33,693.19 967.33,1497.76 782.6,1497.76 "/>
   <polygon class="fil1" points="967.33,693.19 1069.95,693.19 1069.95,346.3 967.33,346.3 "/>
   <polygon class="fil1" points="679.97,761.95 782.6,761.95 782.6,577.21 679.84,577.21 "/>
   <polygon class="fil1" points="366.96,877.92 469.59,877.92 469.59,808.11 367.99,808.11 "/>
   <g>
    <polygon class="fil1" points="84.74,499.21 136.05,499.21 136.05,477.66 84.74,477.66 "/>
    <polygon class="fil0" points="84.74,557.71 136.05,557.71 136.05,536.16 84.74,536.16 "/>
   </g>
   <path class="fil0" d="M142.21 1583.21c-0.8,4.24 -0.17,9.53 -5.72,11.64 -7.83,2.99 -8.19,-3.89 -7.65,-9.79 1.26,-13.83 15.99,-15.75 13.37,-1.85zm-7.89 -13.77c-8.06,1.8 -11.15,7.91 -11.67,16.59 -0.57,9.5 3.35,16.26 14,14.03 15.51,-3.25 18.02,-35.16 -2.33,-30.62z"/>
   <path class="fil0" d="M1026.85 1583.21c-0.8,4.24 -0.17,9.53 -5.72,11.64 -7.83,2.99 -8.19,-3.89 -7.65,-9.79 1.26,-13.83 15.99,-15.75 13.36,-1.85zm-7.89 -13.77c-8.05,1.8 -11.14,7.91 -11.67,16.59 -0.57,9.5 3.35,16.26 14,14.03 15.51,-3.25 18.02,-35.16 -2.33,-30.62z"/>
   <path class="fil0" d="M360.8 1595.26c-3.64,-5.57 -3.54,-9.29 -1.22,-15.58 2.35,-6.39 6.68,-6.87 12.51,-3.92 0,10.06 1.17,19.49 -11.29,19.5zm3.53 -25.78c-16.78,4.48 -16.9,33.61 1.34,30.75 16.07,-2.52 18.65,-36.08 -1.34,-30.75z"/>
   <path class="fil0" d="M715.89 1596.29l17.43 0 -1.75 8.26 5.87 -0.05 1.3 -8.17 4.86 -0.04 0 -5.13c-5.2,-0.12 -5.17,3.03 -1.71,-15.34 -3.9,-0.04 -7.56,-3.25 -7.53,14.32l-11.28 1.21 12.48 -21.64c-8.1,-0.14 -4.32,-2 -12.28,10.36 -3.2,4.97 -7.38,9.91 -7.39,16.22z"/>
   <path class="fil0" d="M974.51 1596.29l17.45 0 -1.06 8.2 6.19 0.01 1.06 -8.2c4.76,-0.09 3.97,1.11 5.1,-3.08 -1.1,-2.72 2.11,-1.92 -4.11,-2.05l2.21 -15.37c-9.52,-0.04 -4.78,0.51 -8.36,15.37l-11.29 0 13.45 -21.48 -6.27 -0.07c-4.12,7.92 -12.38,18.25 -14.37,26.68z"/>
   <path class="fil0" d="M768.23 1576.79c0,5.34 -0.04,10.33 -2.64,14.81 -2.76,4.75 -9.94,5.18 -11.52,0.36 -2.48,-7.53 1.42,-23.51 14.17,-15.17zm-8.21 -7.19c-17.86,4.98 -16.73,35.2 2.46,30.26 15.4,-3.97 16.48,-35.55 -2.46,-30.26z"/>
   <path class="fil0" d="M453.17 1576.79c0,5.34 -0.04,10.33 -2.64,14.81 -2.76,4.75 -9.94,5.18 -11.53,0.36 -2.48,-7.53 1.42,-23.51 14.17,-15.17zm-8.21 -7.19c-17.86,4.98 -16.73,35.2 2.46,30.26 15.4,-3.97 16.48,-35.55 -2.46,-30.26z"/>
   <path class="fil0" d="M686.13 1576.79c0,5.34 -0.04,10.33 -2.64,14.81 -2.76,4.75 -9.94,5.18 -11.53,0.36 -2.48,-7.53 1.42,-23.51 14.17,-15.17zm-8.21 -7.19c-17.86,4.98 -16.73,35.2 2.46,30.26 15.4,-3.97 16.48,-35.55 -2.46,-30.26z"/>
   <path class="fil0" d="M405.96 1574.74c5.84,8.82 3.07,-5.74 16.42,1.03 -0.33,15.45 -10.23,1.48 -11.29,13.34l9.26 0.79 -0.03 7.42c-10.97,7.31 -12.04,-0.02 -15.13,-1.79l-3.61 2.71c4.28,6.88 10.71,9.28 18.06,5.59 2.64,-1.32 5.59,-4.1 6.46,-6.98 1.93,-6.41 -0.13,-6.91 -2.71,-10.83 16.1,-10.57 -7.59,-26.31 -17.45,-11.29z"/>
   <path class="fil0" d="M638.92 1574.74c5.84,8.82 3.07,-5.74 16.42,1.03 -0.33,15.45 -10.23,1.48 -11.29,13.34l9.26 0.79 -0.03 7.42c-10.97,7.31 -12.04,-0.02 -15.13,-1.79l-3.61 2.71c8.43,13.54 22.48,5.37 24.52,-1.38 1.93,-6.41 -0.13,-6.91 -2.7,-10.83 16.1,-10.57 -7.59,-26.31 -17.45,-11.29z"/>
   <path class="fil1" d="M119.63 1019.52c-4.47,0.01 -4.34,-0.09 -8.21,-1.03 -6.73,-27.92 20.32,-17.2 8.21,1.03zm-7.62 -21.64c-12.93,5.28 -8.12,32.23 8.84,26 6.39,-2.35 7.82,-10.81 6.65,-17.34 -1.34,-7.49 -7.54,-11.91 -15.5,-8.66z"/>
   <path class="fil1" d="M405.96 788.62c-4.47,0.01 -4.34,-0.09 -8.21,-1.03 -6.72,-27.9 20.33,-17.21 8.21,1.03zm-7.61 -21.64c-12.93,5.28 -8.12,32.23 8.84,26 6.39,-2.35 7.82,-10.81 6.65,-17.34 -1.34,-7.49 -7.54,-11.91 -15.5,-8.66z"/>
   <path class="fil0" d="M327.96 1575.76l3.28 2.9c3.51,-4.08 4.47,-5.52 11.09,-3.93 -0.01,7.51 -3.24,8.6 -8.53,13.02 -2.03,1.7 -3.57,2.7 -5.67,4.59 -3.92,3.54 -2.63,3.43 -4.28,7.01l22.58 0 0 -5.13c-4.45,0.09 -7.84,1.03 -13.34,1.03 1.28,-1.96 7.18,-6.69 9.5,-8.98 5.84,-5.77 5.89,-4.73 5.89,-13.6 -6.5,-4.27 -13.72,-7.21 -20.53,3.08z"/>
   <path class="fil0" d="M97.97 1575.65l3.46 2.93c2.2,-1.28 5.2,-5.78 8.82,-4.7 4.71,1.41 1.69,7.26 -1.07,9.89 -4.84,4.61 -14.03,8.31 -14.17,15.6l21.55 0 0 -5.13c-4.29,0.09 -7.04,1.03 -12.32,1.03 1.25,-3.28 6.75,-6.98 9.67,-9.83l2.44 -2.69c9.16,-11.98 -7.6,-20.72 -18.38,-7.09z"/>
   <path class="fil1" d="M715.54 540.93c4.95,-1.84 3.97,-1.84 8.91,0 2.76,7.43 2.93,10.18 -1.38,16.77l-6.16 0c-4.3,-6.58 -4.1,-9.44 -1.38,-16.77zm0.89 -4.93c-7.92,2.51 -8.6,8.41 -7.65,16.48 0.87,7.45 7.15,12.04 14.74,9.84 12.93,-3.75 10.37,-31.86 -7.09,-26.32z"/>
   <path class="fil1" d="M1012.48 326.8l-7.18 0c-4.44,-6.66 -4.39,-16.64 2.54,-17.88 8.91,-1.59 7.73,11.79 4.65,17.88zm-7.5 -21.55c-0.96,0.29 -3.81,-0.94 -6.53,5.47 -3.82,9.01 -0.33,24.24 13.42,20.69 13.27,-3.43 10.87,-31.55 -6.89,-26.16z"/>
   <path class="fil1" d="M971.43 310.38c7.61,4.98 4.59,-4.93 12.51,-1.3 2.15,0.99 3.71,2.7 2.33,5.71 -1.41,3.06 -4.02,2.77 -7.65,2.77l0 4.11c5,0 11.67,2.07 7.85,7.74 -1.57,2.33 -3.93,2.74 -6.42,2.23 -4.43,-0.89 -2.64,-2.62 -6.3,-3.56l-2.45 2.7c9.44,14.18 31.08,-2.28 17.59,-11.17 10.1,-15.41 -9.63,-21.02 -17.45,-9.24z"/>
   <path class="fil1" d="M685.1 541.29c7.91,5.18 1.87,-3.81 13.34,-1.03 -0.02,13.95 -13.14,10.95 -13.34,21.55l19.5 0 0 -4.11 -11.29 0c3.97,-6.01 12.66,-9.63 10.41,-17.52 -1.93,-6.8 -14.07,-7.76 -18.62,1.1z"/>
   <path class="fil0" d="M1071.74 1595.53c-2.24,-5.65 -0.82,-12.44 6.42,-12.58 2.5,5.43 0.69,15.33 -6.42,12.58zm0.07 -15.66c-9.78,5.68 -7.06,25.56 6.26,19.46 10.19,-4.67 7.62,-27.52 -6.26,-19.46z"/>
   <path class="fil0" d="M187.1 1595.53c-2.23,-5.65 -0.82,-12.44 6.42,-12.58 2.51,5.43 0.69,15.33 -6.42,12.58zm0.07 -15.66c-4.89,2.84 -6.28,9.18 -5.92,13.26 0.55,6.26 6.92,8.6 12.18,6.19 10.19,-4.67 7.62,-27.52 -6.25,-19.46z"/>
   <path class="fil0" d="M499.35 1596.29c-4.06,-2.66 -3.74,-3.63 -2.46,-8.51 1.37,-5.24 2.29,-4.83 7.59,-4.83 0.4,4.59 1.42,11.57 -5.13,13.34zm10.26 -14.37l-3.27 -2.88c-6.38,-0.19 -10.27,-1.27 -13.05,5.04 -6.76,15.35 6.45,20.57 13.04,13.04 3.7,-4.22 3.28,-9.77 3.28,-15.2z"/>
   <path class="fil0" d="M814.41 1596.29c-4.06,-2.66 -3.74,-3.63 -2.46,-8.51 1.37,-5.24 2.29,-4.83 7.59,-4.83 0.4,4.59 1.42,11.57 -5.13,13.34zm10.26 -14.37l-3.27 -2.88c-6.39,-0.19 -10.27,-1.27 -13.05,5.04 -6.76,15.35 6.45,20.57 13.05,13.04 3.7,-4.22 3.28,-9.77 3.28,-15.2z"/>
   <path class="fil0" d="M1051.48 1568.58c0,3.16 0.58,6.84 -0.62,9.72 -2.47,5.92 -10.37,3.85 -6.86,-5.85 1.62,-4.46 2.96,-3.86 7.49,-3.86zm2.05 -4.11c-6.72,0 -10.56,-1.13 -13.67,5.83 -2.21,4.94 -2.71,12.32 2.46,14.71 4.74,2.19 10.33,-0.08 12.61,-4.77 3.16,-6.53 2.3,-10.12 -1.4,-15.76z"/>
   <path class="fil0" d="M166.84 1568.58c0,3.16 0.58,6.84 -0.62,9.72 -2.47,5.92 -10.37,3.85 -6.86,-5.85 1.62,-4.46 2.96,-3.86 7.49,-3.86zm2.05 -4.11c-6.72,0 -10.56,-1.13 -13.67,5.83 -2.21,4.94 -2.71,12.32 2.46,14.71 8.5,3.92 20.07,-6.99 11.21,-20.54z"/>
   <path class="fil0" d="M791.83 1568.58c0.89,3.66 1.22,4.99 -0.34,8.88 -2.79,6.93 -10.5,5.2 -6.87,-4.74 1.88,-5.13 2.25,-4.14 7.22,-4.14zm5.13 -1.03l-3.27 -2.88c-6.48,-0.19 -9.22,-1.69 -12.55,4.5 -7.3,13.6 4.99,21.99 12.54,13.57 4.18,-4.67 3.29,-9.27 3.29,-15.19z"/>
   <path class="fil0" d="M476.77 1568.58c0.89,3.66 1.22,4.99 -0.34,8.88 -2.79,6.93 -10.51,5.2 -6.87,-4.74 1.87,-5.13 2.25,-4.14 7.22,-4.14zm5.13 -1.03l-3.27 -2.88c-6.48,-0.19 -9.22,-1.69 -12.55,4.5 -2.04,3.79 -3.3,11.74 0.27,14.99 3.2,2.91 9.2,2 12.27,-1.42 4.18,-4.67 3.29,-9.27 3.29,-15.19z"/>
   <path class="fil0" d="M787.73 1599.37l6.16 0 21.72 -34.79 -5.3 -0.11 -2.89 4.29c-0.95,1.49 -2,3.04 -2.86,4.32l-16.83 26.28z"/>
   <path class="fil0" d="M162.73 1599.37c8.71,0 5.39,-0.34 15.41,-15.38 2.81,-4.22 10.2,-15.08 11.28,-19.51 -7.43,0 -5.43,2.12 -14.77,16.01 -3.37,5 -9.28,13.54 -11.91,18.88z"/>
   <path class="fil0" d="M1047.37 1599.37c8.71,0 5.39,-0.34 15.4,-15.38 2.81,-4.22 10.2,-15.08 11.28,-19.51 -7.43,0 -5.43,2.12 -14.77,16.01 -3.36,5 -9.28,13.54 -11.91,18.88z"/>
   <path class="fil0" d="M472.67 1599.37l6.15 0 21.73 -34.79 -5.3 -0.11c-0.9,1.07 -0.04,-0.09 -1.31,1.8l-9.97 15.66c-3.82,5.73 -7.54,11.67 -11.3,17.44z"/>
   <path class="fil1" d="M450.09 789.64c-1.65,-3.59 -1.03,-6.17 -1.03,-10.26 4.58,-2.11 6.04,-1.09 6.63,3.47 0.63,4.94 -0.55,6.69 -5.6,6.79zm-0.11 -14.26c-0.06,0.02 -7.37,-0.98 -5.54,10.63 2.02,12.77 18.09,8.37 15.75,-4.31 -2.03,-10.99 -10.18,-6.33 -10.21,-6.32z"/>
   <path class="fil1" d="M767.21 558.73c-1.29,-5.34 -2.22,-7.63 1.03,-11.29 6.84,0.5 8.35,11.14 -1.03,11.29zm-5.13 0c3.86,2.53 6.43,5.9 11.88,2.72 7.99,-4.66 3.07,-23.16 -8.57,-16.88 -4.81,2.59 -3.32,8.14 -3.32,14.16z"/>
   <path class="fil1" d="M163.76 1020.55c-1.66,-3.59 -1.03,-6.17 -1.03,-10.26 4.58,-2.11 6.04,-1.09 6.63,3.47 0.63,4.94 -0.54,6.69 -5.6,6.79zm-0.11 -14.26c-0.06,0.02 -7.37,-0.98 -5.54,10.63 2.02,12.77 18.09,8.37 15.75,-4.31 -0.29,-1.59 -1.93,-5.06 -3.32,-6.11 -3.91,-2.95 -5.1,-0.74 -6.9,-0.21z"/>
   <path class="fil1" d="M140.92 1007.97l-4.86 -0.8 -0.01 -9.19c3.81,-1.93 4.77,-2.83 6.24,0.91 1.14,2.9 0.44,6.85 -1.37,9.09zm-5.89 3.34l8.21 0c5.18,-7.84 6.81,-8.09 0,-18.47 -5.88,0 -9.79,-0.1 -11.44,6.09 -2.05,7.75 1.75,10.13 3.23,12.38z"/>
   <path class="fil1" d="M1035.06 305.24c0,5.91 1.65,8.69 -4.11,10.26 -2.95,-2.1 -3.92,-5.34 -2.74,-8.87 1.37,-4.09 3.3,-3.19 6.84,-1.4zm1.03 13.34c13.71,-20.96 -16.54,-26.34 -12.17,-5.33 1.33,6.38 6.73,5.33 12.17,5.33z"/>
   <path class="fil1" d="M427.25 777.06l-4.86 -0.8 -0.01 -9.19c3.81,-1.93 4.77,-2.83 6.24,0.91 1.14,2.9 0.44,6.86 -1.37,9.09zm-5.89 3.34l8.21 0c5.18,-7.84 6.81,-8.1 0,-18.47 -8.74,0 -13.94,3.44 -11.63,12.58 1.19,4.7 0.91,2.06 3.42,5.9z"/>
   <path class="fil1" d="M743.6 546.42c-5.75,-1.57 -4.11,-4.36 -4.11,-10.26 3.54,-1.79 5.47,-2.69 6.84,1.4 1.22,3.65 0.36,6.77 -2.74,8.87zm-5.13 3.08c5.44,0 10.84,1.05 12.17,-5.33 1.57,-7.54 -0.79,-8.34 -3.96,-13.14 -5.21,0 -9.94,-0.4 -11.13,5.32 -1.3,6.25 -0.01,8.68 2.92,13.16z"/>
   <path class="fil1" d="M1055.59 316.54l5.13 0c1.44,5.97 1.44,5.31 0,11.29 -8.38,-0.16 -6.65,-5 -5.13,-11.29zm-0.29 -3.1c-9.31,4.01 -5.37,21.56 5.62,17.77 8.84,-3.05 6.12,-22.83 -5.62,-17.77z"/>
   <path class="fil1" d="M1035.06 330.9l5.13 0c2.96,-6.26 13.14,-25.65 14.37,-30.79 -5.9,0 -4.64,-0.49 -7.23,5.09l-12.27 25.7z"/>
   <path class="fil1" d="M143.24 1023.63c6.85,0 2.82,2.57 10.95,-13.68 2.32,-4.64 7.12,-12.14 7.53,-17.11 -6.25,0.14 -4.49,0.8 -10.95,13.69 -2.26,4.51 -6.43,12.53 -7.53,17.1z"/>
   <path class="fil1" d="M429.56 792.72c6.7,0 4.03,0.96 6.87,-5.44 3.16,-7.11 11.15,-19.87 11.6,-25.34 -6.25,0.14 -4.49,0.8 -10.95,13.68 -2.26,4.51 -6.43,12.53 -7.53,17.11z"/>
   <path class="fil1" d="M380.3 792.72l5.13 0 0 -26.68c-3,0.31 -9.64,2.71 -9.82,6.32 -0.19,3.88 1.89,2.05 2.21,2.08 2.4,0.23 2.64,-4.62 2.53,5.86 -0.05,4.15 -0.05,8.28 -0.05,12.43z"/>
   <path class="fil1" d="M746.68 561.81c5.97,0 4.63,0.51 7.23,-5.09 2.82,-6.09 10.82,-20.58 11.25,-25.7 -5.71,0.17 -4.62,2.05 -10.61,14.03 -2.26,4.51 -6.81,12.32 -7.87,16.76z"/>
   <path class="fil0" d="M74.39 1583.88c1.43,4.63 3.09,4.05 6.47,7.06 3.83,3.42 4.06,5.62 7.72,2 -0.87,-5.02 -5.55,-4.98 -7.68,-8.71l10.89 -7.65 -1.94 -3.9c-4.11,2.97 -12.73,7.56 -15.46,11.19z"/>
   <path class="fil0" d="M956.04 1575.76l8.43 7.97 -11.25 8.19 1.81 3.33c3.64,-1.83 14.44,-8.3 16.39,-11.28 -1.86,-2.81 -4.48,-4.19 -6.91,-6.45 -4.27,-3.97 -3.82,-4.56 -8.49,-1.76z"/>
   <polygon class="fil2" points="782.6,762.97 782.6,761.95 679.97,761.95 679.97,762.97 "/>
   <path class="fil0" d="M695.3 1589.08c3.87,0.02 7.63,0.04 11.43,0.09 6.28,0.07 6.98,1 7.12,-5.2l-17.45 0 -1.09 5.11z"/>
   <polygon class="fil0" points="382.36,1589.1 399.8,1589.1 399.8,1583.97 382.36,1583.97 "/>
   <path class="fil3" d="M104.16 163.26l0 -36.02 11.66 0c4.42,0 7.29,0.18 8.64,0.54 2.06,0.55 3.79,1.72 5.18,3.53 1.39,1.81 2.09,4.15 2.09,7.02 0,2.21 -0.4,4.07 -1.2,5.58 -0.8,1.51 -1.82,2.69 -3.05,3.56 -1.23,0.86 -2.49,1.43 -3.76,1.7 -1.74,0.34 -4.24,0.52 -7.53,0.52l-4.73 0 0 13.58 -7.29 0zm7.29 -29.93l0 10.26 3.97 0c2.86,0 4.76,-0.19 5.73,-0.57 0.96,-0.38 1.72,-0.96 2.26,-1.78 0.55,-0.8 0.82,-1.74 0.82,-2.81 0,-1.32 -0.39,-2.4 -1.15,-3.25 -0.77,-0.86 -1.74,-1.39 -2.92,-1.61 -0.86,-0.16 -2.6,-0.24 -5.22,-0.24l-3.5 0z"/>
   <polygon id="_1" class="fil3" points="137.72,163.26 137.72,127.24 164.38,127.24 164.38,133.33 145.01,133.33 145.01,141.33 163.02,141.33 163.02,147.41 145.01,147.41 145.01,157.17 165.09,157.17 165.09,163.26 "/>
   <path id="_2" class="fil3" d="M171.28 163.26l0 -36.02 15.32 0c3.85,0 6.65,0.33 8.39,0.97 1.75,0.65 3.14,1.8 4.19,3.45 1.05,1.66 1.57,3.55 1.57,5.68 0,2.71 -0.79,4.94 -2.37,6.7 -1.58,1.76 -3.95,2.87 -7.1,3.33 1.57,0.91 2.86,1.92 3.87,3.02 1.02,1.1 2.4,3.05 4.13,5.85l4.39 7.03 -8.69 0 -5.22 -7.87c-1.87,-2.79 -3.15,-4.55 -3.85,-5.28 -0.69,-0.72 -1.42,-1.23 -2.19,-1.49 -0.78,-0.27 -2,-0.4 -3.68,-0.4l-1.47 0 0 15.04 -7.29 0zm7.29 -20.78l5.38 0c3.49,0 5.66,-0.15 6.53,-0.44 0.86,-0.29 1.55,-0.8 2.04,-1.53 0.5,-0.72 0.74,-1.63 0.74,-2.71 0,-1.22 -0.33,-2.19 -0.97,-2.94 -0.65,-0.75 -1.56,-1.21 -2.73,-1.41 -0.6,-0.09 -2.36,-0.13 -5.31,-0.13l-5.68 0 0 9.16z"/>
   <polygon id="_3" class="fil3" points="207.61,163.26 207.61,127.24 232.36,127.24 232.36,133.33 214.9,133.33 214.9,141.88 229.99,141.88 229.99,147.97 214.9,147.97 214.9,163.26 "/>
   <path id="_4" class="fil3" d="M236.83 145.47c0,-3.67 0.55,-6.76 1.65,-9.26 0.81,-1.84 1.94,-3.49 3.35,-4.95 1.42,-1.46 2.97,-2.54 4.65,-3.25 2.25,-0.95 4.84,-1.43 7.77,-1.43 5.32,0 9.56,1.65 12.75,4.95 3.19,3.3 4.78,7.89 4.78,13.77 0,5.83 -1.58,10.39 -4.74,13.68 -3.16,3.29 -7.4,4.94 -12.69,4.94 -5.36,0 -9.63,-1.64 -12.79,-4.91 -3.16,-3.27 -4.74,-7.78 -4.74,-13.53zm7.49 -0.24c0,4.08 0.95,7.18 2.84,9.29 1.88,2.1 4.28,3.16 7.19,3.16 2.91,0 5.29,-1.05 7.16,-3.14 1.86,-2.1 2.79,-5.23 2.79,-9.42 0,-4.13 -0.91,-7.22 -2.73,-9.25 -1.81,-2.04 -4.22,-3.05 -7.23,-3.05 -3,0 -5.42,1.03 -7.26,3.09 -1.84,2.06 -2.76,5.17 -2.76,9.32z"/>
   <path id="_5" class="fil3" d="M277.47 163.26l0 -36.02 15.32 0c3.85,0 6.65,0.33 8.39,0.97 1.75,0.65 3.14,1.8 4.19,3.45 1.05,1.66 1.57,3.55 1.57,5.68 0,2.71 -0.79,4.94 -2.37,6.7 -1.58,1.76 -3.95,2.87 -7.1,3.33 1.57,0.91 2.86,1.92 3.87,3.02 1.02,1.1 2.4,3.05 4.13,5.85l4.39 7.03 -8.69 0 -5.22 -7.87c-1.87,-2.79 -3.15,-4.55 -3.85,-5.28 -0.69,-0.72 -1.42,-1.23 -2.19,-1.49 -0.78,-0.27 -2,-0.4 -3.68,-0.4l-1.47 0 0 15.04 -7.29 0zm7.29 -20.78l5.38 0c3.49,0 5.66,-0.15 6.53,-0.44 0.86,-0.29 1.55,-0.8 2.04,-1.53 0.5,-0.72 0.74,-1.63 0.74,-2.71 0,-1.22 -0.33,-2.19 -0.97,-2.94 -0.65,-0.75 -1.56,-1.21 -2.73,-1.41 -0.6,-0.09 -2.36,-0.13 -5.31,-0.13l-5.68 0 0 9.16z"/>
   <polygon id="_6" class="fil3" points="313.7,163.26 313.7,127.24 324.62,127.24 331.08,151.81 337.46,127.24 348.41,127.24 348.41,163.26 341.67,163.26 341.64,134.91 334.54,163.26 327.53,163.26 320.46,134.91 320.44,163.26 "/>
   <path id="_7" class="fil3" d="M388.15 163.26l-7.86 0 -3.11 -8.2 -14.45 0 -2.99 8.2 -7.71 0 13.99 -36.02 7.7 0 14.43 36.02zm-13.33 -14.29l-5.01 -13.33 -4.86 13.33 9.87 0z"/>
   <polygon id="_8" class="fil3" points="392.03,163.26 392.03,127.24 399.09,127.24 413.92,151.38 413.92,127.24 420.66,127.24 420.66,163.26 413.37,163.26 398.77,139.58 398.77,163.26 "/>
   <path id="_9" class="fil3" d="M451.41 149.98l7.04 2.16c-1.08,3.97 -2.88,6.91 -5.4,8.84 -2.51,1.92 -5.7,2.89 -9.57,2.89 -4.79,0 -8.72,-1.64 -11.8,-4.91 -3.08,-3.27 -4.62,-7.74 -4.62,-13.41 0,-6 1.55,-10.66 4.65,-13.98 3.09,-3.32 7.17,-4.98 12.21,-4.98 4.41,0 7.99,1.31 10.74,3.92 1.64,1.54 2.87,3.76 3.69,6.65l-7.19 1.71c-0.43,-1.86 -1.32,-3.34 -2.67,-4.42 -1.36,-1.08 -3,-1.62 -4.93,-1.62 -2.67,0 -4.85,0.96 -6.51,2.88 -1.67,1.91 -2.5,5.01 -2.5,9.31 0,4.54 0.82,7.79 2.46,9.72 1.64,1.94 3.77,2.9 6.4,2.9 1.94,0 3.61,-0.61 5,-1.85 1.39,-1.23 2.4,-3.16 3,-5.8z"/>
   <polygon id="_10" class="fil3" points="464.7,163.26 464.7,127.24 491.36,127.24 491.36,133.33 471.99,133.33 471.99,141.33 490,141.33 490,147.41 471.99,147.41 471.99,157.17 492.06,157.17 492.06,163.26 "/>
   <path id="_11" class="fil3" d="M512.23 127.24l14.4 0c2.86,0 4.98,0.12 6.38,0.35 1.41,0.24 2.66,0.74 3.76,1.48 1.11,0.75 2.03,1.75 2.77,3 0.74,1.25 1.11,2.66 1.11,4.21 0,1.68 -0.45,3.23 -1.36,4.63 -0.91,1.41 -2.14,2.46 -3.69,3.16 2.19,0.65 3.87,1.74 5.05,3.28 1.17,1.54 1.76,3.35 1.76,5.44 0,1.64 -0.38,3.23 -1.14,4.79 -0.76,1.55 -1.8,2.79 -3.13,3.72 -1.32,0.92 -2.94,1.49 -4.88,1.71 -1.21,0.12 -4.13,0.21 -8.77,0.24l-12.27 0 0 -36.02zm7.29 5.99l0 8.3 4.76 0c2.83,0 4.59,-0.04 5.27,-0.12 1.24,-0.14 2.22,-0.57 2.94,-1.28 0.71,-0.71 1.06,-1.64 1.06,-2.8 0,-1.12 -0.31,-2.01 -0.92,-2.71 -0.61,-0.7 -1.53,-1.11 -2.73,-1.26 -0.72,-0.08 -2.79,-0.12 -6.21,-0.12l-4.17 0zm0 14.29l0 9.66 6.74 0c2.62,0 4.28,-0.07 4.99,-0.22 1.08,-0.2 1.96,-0.68 2.64,-1.44 0.68,-0.77 1.02,-1.79 1.02,-3.07 0,-1.09 -0.26,-2 -0.79,-2.76 -0.52,-0.75 -1.28,-1.31 -2.27,-1.65 -0.99,-0.34 -3.14,-0.52 -6.45,-0.52l-5.88 0z"/>
   <path id="_12" class="fil3" d="M547.05 145.47c0,-3.67 0.55,-6.76 1.65,-9.26 0.81,-1.84 1.94,-3.49 3.35,-4.95 1.42,-1.46 2.97,-2.54 4.65,-3.25 2.25,-0.95 4.84,-1.43 7.77,-1.43 5.32,0 9.56,1.65 12.75,4.95 3.19,3.3 4.78,7.89 4.78,13.77 0,5.83 -1.58,10.39 -4.74,13.68 -3.16,3.29 -7.4,4.94 -12.69,4.94 -5.36,0 -9.63,-1.64 -12.79,-4.91 -3.16,-3.27 -4.74,-7.78 -4.74,-13.53zm7.49 -0.24c0,4.08 0.95,7.18 2.84,9.29 1.88,2.1 4.28,3.16 7.19,3.16 2.91,0 5.29,-1.05 7.16,-3.14 1.86,-2.1 2.79,-5.23 2.79,-9.42 0,-4.13 -0.91,-7.22 -2.73,-9.25 -1.81,-2.04 -4.22,-3.05 -7.23,-3.05 -3,0 -5.42,1.03 -7.26,3.09 -1.84,2.06 -2.76,5.17 -2.76,9.32z"/>
   <polygon id="_13" class="fil3" points="587.69,163.26 587.69,127.24 594.75,127.24 609.58,151.38 609.58,127.24 616.32,127.24 616.32,163.26 609.03,163.26 594.43,139.58 594.43,163.26 "/>
   <path id="_14" class="fil3" d="M624.02 127.24l7.29 0 0 19.52c0,3.1 0.09,5.11 0.27,6.02 0.31,1.48 1.04,2.67 2.2,3.56 1.16,0.9 2.75,1.34 4.76,1.34 2.04,0 3.58,-0.42 4.62,-1.27 1.04,-0.85 1.66,-1.88 1.87,-3.11 0.21,-1.23 0.32,-3.27 0.32,-6.12l0 -19.94 7.29 0 0 18.94c0,4.33 -0.19,7.39 -0.59,9.17 -0.39,1.79 -1.11,3.3 -2.17,4.53 -1.05,1.23 -2.46,2.21 -4.22,2.93 -1.77,0.73 -4.07,1.1 -6.91,1.1 -3.43,0 -6.03,-0.39 -7.8,-1.19 -1.77,-0.8 -3.17,-1.83 -4.2,-3.1 -1.03,-1.28 -1.7,-2.6 -2.03,-4 -0.48,-2.06 -0.71,-5.12 -0.71,-9.15l0 -19.23z"/>
   <path id="_15" class="fil3" d="M658.44 151.59l7.09 -0.7c0.43,2.37 1.28,4.11 2.58,5.22 1.3,1.11 3.05,1.67 5.26,1.67 2.33,0 4.09,-0.5 5.27,-1.48 1.18,-0.99 1.78,-2.15 1.78,-3.47 0,-0.86 -0.25,-1.57 -0.75,-2.18 -0.5,-0.6 -1.37,-1.11 -2.61,-1.55 -0.85,-0.3 -2.78,-0.82 -5.8,-1.58 -3.88,-0.97 -6.61,-2.16 -8.17,-3.58 -2.21,-1.99 -3.3,-4.41 -3.3,-7.27 0,-1.84 0.52,-3.56 1.55,-5.17 1.04,-1.6 2.53,-2.82 4.49,-3.66 1.95,-0.84 4.3,-1.26 7.07,-1.26 4.5,0 7.9,1 10.17,3 2.28,2 3.47,4.67 3.59,8.02l-7.29 0.25c-0.31,-1.86 -0.97,-3.2 -1.99,-4.01 -1.01,-0.81 -2.54,-1.22 -4.57,-1.22 -2.1,0 -3.74,0.44 -4.92,1.31 -0.76,0.56 -1.15,1.31 -1.15,2.25 0,0.86 0.36,1.58 1.08,2.19 0.91,0.78 3.13,1.59 6.67,2.42 3.53,0.83 6.14,1.7 7.82,2.59 1.69,0.9 3.02,2.11 3.97,3.66 0.96,1.55 1.43,3.46 1.43,5.73 0,2.06 -0.57,4 -1.72,5.8 -1.15,1.8 -2.77,3.15 -4.86,4.02 -2.1,0.88 -4.71,1.32 -7.84,1.32 -4.55,0 -8.05,-1.05 -10.49,-3.15 -2.44,-2.1 -3.89,-5.16 -4.37,-9.17z"/>
   <path id="_16" class="fil3" d="M738.47 163.26l-7.86 0 -3.11 -8.2 -14.45 0 -2.99 8.2 -7.71 0 13.99 -36.02 7.7 0 14.43 36.02zm-13.33 -14.29l-5.01 -13.33 -4.86 13.33 9.87 0z"/>
   <polygon id="_17" class="fil3" points="742.55,163.26 742.55,127.54 749.84,127.54 749.84,157.17 767.9,157.17 767.9,163.26 "/>
   <polygon id="_18" class="fil3" points="773.28,163.26 773.28,127.54 780.57,127.54 780.57,157.17 798.63,157.17 798.63,163.26 "/>
   <path id="_19" class="fil3" d="M802.3 145.47c0,-3.67 0.55,-6.76 1.65,-9.26 0.81,-1.84 1.94,-3.49 3.35,-4.95 1.42,-1.46 2.97,-2.54 4.65,-3.25 2.25,-0.95 4.84,-1.43 7.77,-1.43 5.32,0 9.56,1.65 12.75,4.95 3.19,3.3 4.78,7.89 4.78,13.77 0,5.83 -1.58,10.39 -4.74,13.68 -3.16,3.29 -7.4,4.94 -12.69,4.94 -5.36,0 -9.63,-1.64 -12.79,-4.91 -3.16,-3.27 -4.74,-7.78 -4.74,-13.53zm7.49 -0.24c0,4.08 0.95,7.18 2.84,9.29 1.88,2.1 4.28,3.16 7.19,3.16 2.91,0 5.29,-1.05 7.16,-3.14 1.86,-2.1 2.79,-5.23 2.79,-9.42 0,-4.13 -0.91,-7.22 -2.73,-9.25 -1.81,-2.04 -4.22,-3.05 -7.23,-3.05 -3,0 -5.42,1.03 -7.26,3.09 -1.84,2.06 -2.76,5.17 -2.76,9.32z"/>
   <path id="_20" class="fil3" d="M865.98 149.98l7.04 2.16c-1.08,3.97 -2.88,6.91 -5.4,8.84 -2.51,1.92 -5.7,2.89 -9.57,2.89 -4.79,0 -8.72,-1.64 -11.8,-4.91 -3.08,-3.27 -4.62,-7.74 -4.62,-13.41 0,-6 1.55,-10.66 4.65,-13.98 3.09,-3.32 7.17,-4.98 12.21,-4.98 4.41,0 7.99,1.31 10.74,3.92 1.64,1.54 2.87,3.76 3.69,6.65l-7.19 1.71c-0.43,-1.86 -1.32,-3.34 -2.67,-4.42 -1.36,-1.08 -3,-1.62 -4.93,-1.62 -2.67,0 -4.85,0.96 -6.51,2.88 -1.67,1.91 -2.5,5.01 -2.5,9.31 0,4.54 0.82,7.79 2.46,9.72 1.64,1.94 3.77,2.9 6.4,2.9 1.94,0 3.61,-0.61 5,-1.85 1.39,-1.23 2.4,-3.16 3,-5.8z"/>
   <path id="_21" class="fil3" d="M911.72 163.26l-7.86 0 -3.11 -8.2 -14.45 0 -2.99 8.2 -7.71 0 13.99 -36.02 7.7 0 14.43 36.02zm-13.33 -14.29l-5.01 -13.33 -4.86 13.33 9.87 0z"/>
   <polygon id="_22" class="fil3" points="919.97,163.26 919.97,133.33 909.3,133.33 909.3,127.24 937.88,127.24 937.88,133.33 927.26,133.33 927.26,163.26 "/>
   <polygon id="_23" class="fil3" points="942.34,163.26 942.34,127.24 949.64,127.24 949.64,163.26 "/>
   <path id="_24" class="fil3" d="M955.06 145.47c0,-3.67 0.55,-6.76 1.65,-9.26 0.81,-1.84 1.94,-3.49 3.35,-4.95 1.42,-1.46 2.97,-2.54 4.65,-3.25 2.25,-0.95 4.84,-1.43 7.77,-1.43 5.32,0 9.56,1.65 12.75,4.95 3.19,3.3 4.78,7.89 4.78,13.77 0,5.83 -1.58,10.39 -4.74,13.68 -3.16,3.29 -7.4,4.94 -12.69,4.94 -5.36,0 -9.63,-1.64 -12.79,-4.91 -3.16,-3.27 -4.74,-7.78 -4.74,-13.53zm7.49 -0.24c0,4.08 0.95,7.18 2.84,9.29 1.88,2.1 4.28,3.16 7.19,3.16 2.91,0 5.29,-1.05 7.16,-3.14 1.86,-2.1 2.79,-5.23 2.79,-9.42 0,-4.13 -0.91,-7.22 -2.73,-9.25 -1.81,-2.04 -4.22,-3.05 -7.23,-3.05 -3,0 -5.42,1.03 -7.26,3.09 -1.84,2.06 -2.76,5.17 -2.76,9.32z"/>
   <polygon id="_25" class="fil3" points="995.71,163.26 995.71,127.24 1002.76,127.24 1017.59,151.38 1017.59,127.24 1024.33,127.24 1024.33,163.26 1017.04,163.26 1002.45,139.58 1002.45,163.26 "/>
   <path id="_26" class="fil3" d="M94.33 183.44l14.4 0c2.86,0 4.98,0.12 6.38,0.35 1.41,0.24 2.66,0.74 3.76,1.48 1.11,0.75 2.03,1.75 2.77,3 0.74,1.25 1.11,2.66 1.11,4.21 0,1.68 -0.45,3.23 -1.36,4.63 -0.91,1.41 -2.14,2.46 -3.69,3.16 2.19,0.65 3.87,1.74 5.05,3.28 1.17,1.54 1.76,3.35 1.76,5.44 0,1.64 -0.38,3.23 -1.14,4.79 -0.76,1.55 -1.8,2.79 -3.13,3.72 -1.32,0.92 -2.94,1.49 -4.88,1.71 -1.21,0.12 -4.13,0.21 -8.77,0.24l-12.27 0 0 -36.02zm7.29 5.99l0 8.3 4.76 0c2.83,0 4.59,-0.04 5.27,-0.12 1.24,-0.14 2.22,-0.57 2.94,-1.28 0.71,-0.71 1.06,-1.64 1.06,-2.8 0,-1.12 -0.31,-2.01 -0.92,-2.71 -0.61,-0.7 -1.53,-1.11 -2.73,-1.26 -0.72,-0.08 -2.79,-0.12 -6.21,-0.12l-4.17 0zm0 14.29l0 9.66 6.74 0c2.62,0 4.28,-0.07 4.99,-0.22 1.08,-0.2 1.96,-0.68 2.64,-1.44 0.68,-0.77 1.02,-1.79 1.02,-3.07 0,-1.09 -0.26,-2 -0.79,-2.76 -0.52,-0.75 -1.28,-1.31 -2.27,-1.65 -0.99,-0.34 -3.14,-0.52 -6.45,-0.52l-5.88 0z"/>
   <path id="_27" class="fil3" d="M163.11 219.47l-7.86 0 -3.11 -8.2 -14.45 0 -2.99 8.2 -7.71 0 13.99 -36.02 7.7 0 14.43 36.02zm-13.33 -14.29l-5.01 -13.33 -4.86 13.33 9.87 0z"/>
   <path id="_28" class="fil3" d="M165.08 207.79l7.09 -0.7c0.43,2.37 1.28,4.11 2.58,5.22 1.3,1.11 3.05,1.67 5.26,1.67 2.33,0 4.09,-0.5 5.27,-1.48 1.18,-0.99 1.78,-2.15 1.78,-3.47 0,-0.86 -0.25,-1.57 -0.75,-2.18 -0.5,-0.6 -1.37,-1.11 -2.61,-1.55 -0.85,-0.3 -2.78,-0.82 -5.8,-1.58 -3.88,-0.97 -6.61,-2.16 -8.17,-3.58 -2.21,-1.99 -3.3,-4.41 -3.3,-7.27 0,-1.84 0.52,-3.56 1.55,-5.17 1.04,-1.6 2.53,-2.82 4.49,-3.66 1.95,-0.84 4.3,-1.26 7.07,-1.26 4.5,0 7.9,1 10.17,3 2.28,2 3.47,4.67 3.59,8.02l-7.29 0.25c-0.31,-1.86 -0.97,-3.2 -1.99,-4.01 -1.01,-0.81 -2.54,-1.22 -4.57,-1.22 -2.1,0 -3.74,0.44 -4.92,1.31 -0.76,0.56 -1.15,1.31 -1.15,2.25 0,0.86 0.36,1.58 1.08,2.19 0.91,0.78 3.13,1.59 6.67,2.42 3.53,0.83 6.14,1.7 7.82,2.59 1.69,0.9 3.02,2.11 3.97,3.66 0.96,1.55 1.43,3.46 1.43,5.73 0,2.06 -0.57,4 -1.72,5.8 -1.15,1.8 -2.77,3.15 -4.86,4.02 -2.1,0.88 -4.71,1.32 -7.84,1.32 -4.55,0 -8.05,-1.05 -10.49,-3.15 -2.44,-2.1 -3.89,-5.16 -4.37,-9.17z"/>
   <polygon id="_29" class="fil3" points="200.55,219.47 200.55,183.44 227.22,183.44 227.22,189.53 207.85,189.53 207.85,197.53 225.86,197.53 225.86,203.62 207.85,203.62 207.85,213.38 227.92,213.38 227.92,219.47 "/>
   <path id="_30" class="fil3" d="M234.11 183.44l13.26 0c2.99,0 5.27,0.23 6.84,0.69 2.1,0.62 3.92,1.73 5.42,3.32 1.51,1.58 2.65,3.53 3.44,5.83 0.78,2.3 1.17,5.14 1.17,8.51 0,2.97 -0.37,5.52 -1.11,7.66 -0.9,2.62 -2.18,4.75 -3.85,6.36 -1.26,1.23 -2.96,2.19 -5.1,2.87 -1.6,0.51 -3.74,0.76 -6.42,0.76l-13.66 0 0 -36.02zm7.29 6.09l0 23.85 5.41 0c2.02,0 3.48,-0.12 4.38,-0.34 1.18,-0.29 2.16,-0.8 2.93,-1.5 0.78,-0.7 1.41,-1.86 1.9,-3.47 0.5,-1.61 0.74,-3.81 0.74,-6.6 0,-2.78 -0.24,-4.91 -0.74,-6.41 -0.49,-1.49 -1.17,-2.65 -2.05,-3.49 -0.88,-0.83 -1.99,-1.4 -3.35,-1.69 -1.01,-0.23 -2.99,-0.34 -5.95,-0.34l-3.25 0z"/>
   <path id="_31" class="fil3" d="M282.91 201.67c0,-3.67 0.55,-6.76 1.65,-9.26 0.81,-1.84 1.94,-3.49 3.35,-4.95 1.42,-1.46 2.97,-2.54 4.65,-3.25 2.25,-0.95 4.84,-1.43 7.77,-1.43 5.32,0 9.56,1.65 12.75,4.95 3.19,3.3 4.78,7.89 4.78,13.77 0,5.83 -1.58,10.39 -4.74,13.68 -3.16,3.29 -7.4,4.94 -12.69,4.94 -5.36,0 -9.63,-1.64 -12.79,-4.91 -3.16,-3.27 -4.74,-7.78 -4.74,-13.53zm7.49 -0.24c0,4.08 0.95,7.18 2.84,9.29 1.88,2.1 4.28,3.16 7.19,3.16 2.91,0 5.29,-1.05 7.16,-3.14 1.86,-2.1 2.79,-5.23 2.79,-9.42 0,-4.13 -0.91,-7.22 -2.73,-9.25 -1.81,-2.04 -4.22,-3.05 -7.23,-3.05 -3,0 -5.42,1.03 -7.26,3.09 -1.84,2.06 -2.76,5.17 -2.76,9.32z"/>
   <polygon id="_32" class="fil3" points="323.55,219.47 323.55,183.44 330.61,183.44 345.43,207.58 345.43,183.44 352.17,183.44 352.17,219.47 344.89,219.47 330.29,195.79 330.29,219.47 "/>
   <path id="_33" class="fil3" d="M404.43 219.47l-7.86 0 -3.11 -8.2 -14.45 0 -2.99 8.2 -7.71 0 13.99 -36.02 7.7 0 14.43 36.02zm-13.33 -14.29l-5.01 -13.33 -4.86 13.33 9.87 0z"/>
   <polygon id="_34" class="fil3" points="408.32,219.47 408.32,183.44 415.38,183.44 430.2,207.58 430.2,183.44 436.94,183.44 436.94,219.47 429.66,219.47 415.06,195.79 415.06,219.47 "/>
   <polygon id="_35" class="fil3" points="444.65,219.47 444.65,183.44 451.71,183.44 466.53,207.58 466.53,183.44 473.27,183.44 473.27,219.47 465.99,219.47 451.39,195.79 451.39,219.47 "/>
   <path id="_36" class="fil3" d="M480.98 183.44l7.29 0 0 19.52c0,3.1 0.09,5.11 0.27,6.02 0.31,1.48 1.04,2.67 2.2,3.56 1.16,0.9 2.75,1.34 4.76,1.34 2.04,0 3.58,-0.42 4.62,-1.27 1.04,-0.85 1.66,-1.88 1.87,-3.11 0.21,-1.23 0.32,-3.27 0.32,-6.12l0 -19.94 7.29 0 0 18.94c0,4.33 -0.19,7.39 -0.59,9.17 -0.39,1.79 -1.11,3.3 -2.17,4.53 -1.05,1.23 -2.46,2.21 -4.22,2.93 -1.77,0.73 -4.07,1.1 -6.91,1.1 -3.43,0 -6.03,-0.39 -7.8,-1.19 -1.77,-0.8 -3.17,-1.83 -4.2,-3.1 -1.03,-1.28 -1.7,-2.6 -2.03,-4 -0.48,-2.06 -0.71,-5.12 -0.71,-9.15l0 -19.23z"/>
   <path id="_37" class="fil3" d="M549.76 219.47l-7.86 0 -3.11 -8.2 -14.45 0 -2.99 8.2 -7.71 0 13.99 -36.02 7.7 0 14.43 36.02zm-13.33 -14.29l-5.01 -13.33 -4.86 13.33 9.87 0z"/>
   <polygon id="_38" class="fil3" points="553.84,219.47 553.84,183.75 561.14,183.75 561.14,213.38 579.2,213.38 579.2,219.47 "/>
   <path id="_39" class="fil3" d="M597.44 219.47l0 -36.02 11.66 0c4.42,0 7.29,0.18 8.64,0.54 2.06,0.55 3.79,1.72 5.18,3.53 1.39,1.81 2.09,4.15 2.09,7.02 0,2.21 -0.4,4.07 -1.2,5.58 -0.8,1.51 -1.82,2.69 -3.05,3.56 -1.23,0.86 -2.49,1.43 -3.76,1.7 -1.74,0.34 -4.24,0.52 -7.53,0.52l-4.73 0 0 13.58 -7.29 0zm7.29 -29.93l0 10.26 3.97 0c2.86,0 4.76,-0.19 5.73,-0.57 0.96,-0.38 1.72,-0.96 2.26,-1.78 0.55,-0.8 0.82,-1.74 0.82,-2.81 0,-1.32 -0.39,-2.4 -1.15,-3.25 -0.77,-0.86 -1.74,-1.39 -2.92,-1.61 -0.86,-0.16 -2.6,-0.24 -5.22,-0.24l-3.5 0z"/>
   <path id="_40" class="fil3" d="M631 219.47l0 -36.02 15.32 0c3.85,0 6.65,0.33 8.39,0.97 1.75,0.65 3.14,1.8 4.19,3.45 1.05,1.66 1.57,3.55 1.57,5.68 0,2.71 -0.79,4.94 -2.37,6.7 -1.58,1.76 -3.95,2.87 -7.1,3.33 1.57,0.91 2.86,1.92 3.87,3.02 1.02,1.1 2.4,3.05 4.13,5.85l4.39 7.03 -8.69 0 -5.22 -7.87c-1.87,-2.79 -3.15,-4.55 -3.85,-5.28 -0.69,-0.72 -1.42,-1.23 -2.19,-1.49 -0.78,-0.27 -2,-0.4 -3.68,-0.4l-1.47 0 0 15.04 -7.29 0zm7.29 -20.78l5.38 0c3.49,0 5.66,-0.15 6.53,-0.44 0.86,-0.29 1.55,-0.8 2.04,-1.53 0.5,-0.72 0.74,-1.63 0.74,-2.71 0,-1.22 -0.33,-2.19 -0.97,-2.94 -0.65,-0.75 -1.56,-1.21 -2.73,-1.41 -0.6,-0.09 -2.36,-0.13 -5.31,-0.13l-5.68 0 0 9.16z"/>
   <path id="_41" class="fil3" d="M665.82 201.67c0,-3.67 0.55,-6.76 1.65,-9.26 0.81,-1.84 1.94,-3.49 3.35,-4.95 1.42,-1.46 2.97,-2.54 4.65,-3.25 2.25,-0.95 4.84,-1.43 7.77,-1.43 5.32,0 9.56,1.65 12.75,4.95 3.19,3.3 4.78,7.89 4.78,13.77 0,5.83 -1.58,10.39 -4.74,13.68 -3.16,3.29 -7.4,4.94 -12.69,4.94 -5.36,0 -9.63,-1.64 -12.79,-4.91 -3.16,-3.27 -4.74,-7.78 -4.74,-13.53zm7.49 -0.24c0,4.08 0.95,7.18 2.84,9.29 1.88,2.1 4.28,3.16 7.19,3.16 2.91,0 5.29,-1.05 7.16,-3.14 1.86,-2.1 2.79,-5.23 2.79,-9.42 0,-4.13 -0.91,-7.22 -2.73,-9.25 -1.81,-2.04 -4.22,-3.05 -7.23,-3.05 -3,0 -5.42,1.03 -7.26,3.09 -1.84,2.06 -2.76,5.17 -2.76,9.32z"/>
   <polygon id="_42" class="fil3" points="706.46,219.47 706.46,183.44 731.21,183.44 731.21,189.53 713.75,189.53 713.75,198.08 728.85,198.08 728.85,204.17 713.75,204.17 713.75,219.47 "/>
   <polygon id="_43" class="fil3" points="736.94,219.47 736.94,183.44 744.23,183.44 744.23,219.47 "/>
   <polygon id="_44" class="fil3" points="759.27,219.47 759.27,189.53 748.6,189.53 748.6,183.44 777.18,183.44 777.18,189.53 766.56,189.53 766.56,219.47 "/>
   <path id="_45" class="fil3" d="M779.98 207.79l7.09 -0.7c0.43,2.37 1.28,4.11 2.58,5.22 1.3,1.11 3.05,1.67 5.26,1.67 2.33,0 4.09,-0.5 5.27,-1.48 1.18,-0.99 1.78,-2.15 1.78,-3.47 0,-0.86 -0.25,-1.57 -0.75,-2.18 -0.5,-0.6 -1.37,-1.11 -2.61,-1.55 -0.85,-0.3 -2.78,-0.82 -5.8,-1.58 -3.88,-0.97 -6.61,-2.16 -8.17,-3.58 -2.21,-1.99 -3.3,-4.41 -3.3,-7.27 0,-1.84 0.52,-3.56 1.55,-5.17 1.04,-1.6 2.53,-2.82 4.49,-3.66 1.95,-0.84 4.3,-1.26 7.07,-1.26 4.5,0 7.9,1 10.17,3 2.28,2 3.47,4.67 3.59,8.02l-7.29 0.25c-0.31,-1.86 -0.97,-3.2 -1.99,-4.01 -1.01,-0.81 -2.54,-1.22 -4.57,-1.22 -2.1,0 -3.74,0.44 -4.92,1.31 -0.76,0.56 -1.15,1.31 -1.15,2.25 0,0.86 0.36,1.58 1.08,2.19 0.91,0.78 3.13,1.59 6.67,2.42 3.53,0.83 6.14,1.7 7.82,2.59 1.69,0.9 3.02,2.11 3.97,3.66 0.96,1.55 1.43,3.46 1.43,5.73 0,2.06 -0.57,4 -1.72,5.8 -1.15,1.8 -2.77,3.15 -4.86,4.02 -2.1,0.88 -4.71,1.32 -7.84,1.32 -4.55,0 -8.05,-1.05 -10.49,-3.15 -2.44,-2.1 -3.89,-5.16 -4.37,-9.17z"/>
   <polygon id="_46" class="fil3" points="829.43,219.47 829.43,183.44 856.09,183.44 856.09,189.53 836.72,189.53 836.72,197.53 854.73,197.53 854.73,203.62 836.72,203.62 836.72,213.38 856.8,213.38 856.8,219.47 "/>
   <path id="_47" class="fil3" d="M895.43 219.47l-7.86 0 -3.11 -8.2 -14.45 0 -2.99 8.2 -7.71 0 13.99 -36.02 7.7 0 14.43 36.02zm-13.33 -14.29l-5.01 -13.33 -4.86 13.33 9.87 0z"/>
   <path id="_48" class="fil3" d="M899.32 219.47l0 -36.02 15.32 0c3.85,0 6.65,0.33 8.39,0.97 1.75,0.65 3.14,1.8 4.19,3.45 1.05,1.66 1.57,3.55 1.57,5.68 0,2.71 -0.79,4.94 -2.37,6.7 -1.58,1.76 -3.95,2.87 -7.1,3.33 1.57,0.91 2.86,1.92 3.87,3.02 1.02,1.1 2.4,3.05 4.13,5.85l4.39 7.03 -8.69 0 -5.22 -7.87c-1.87,-2.79 -3.15,-4.55 -3.85,-5.28 -0.69,-0.72 -1.42,-1.23 -2.19,-1.49 -0.78,-0.27 -2,-0.4 -3.68,-0.4l-1.47 0 0 15.04 -7.29 0zm7.29 -20.78l5.38 0c3.49,0 5.66,-0.15 6.53,-0.44 0.86,-0.29 1.55,-0.8 2.04,-1.53 0.5,-0.72 0.74,-1.63 0.74,-2.71 0,-1.22 -0.33,-2.19 -0.97,-2.94 -0.65,-0.75 -1.56,-1.21 -2.73,-1.41 -0.6,-0.09 -2.36,-0.13 -5.31,-0.13l-5.68 0 0 9.16z"/>
   <polygon id="_49" class="fil3" points="935.65,219.47 935.65,183.44 942.71,183.44 957.53,207.58 957.53,183.44 964.27,183.44 964.27,219.47 956.99,219.47 942.39,195.79 942.39,219.47 "/>
   <polygon id="_50" class="fil3" points="971.98,219.47 971.98,183.44 998.64,183.44 998.64,189.53 979.27,189.53 979.27,197.53 997.28,197.53 997.28,203.62 979.27,203.62 979.27,213.38 999.34,213.38 999.34,219.47 "/>
   <path id="_51" class="fil3" d="M1005.53 183.44l13.26 0c2.99,0 5.27,0.23 6.84,0.69 2.1,0.62 3.92,1.73 5.42,3.32 1.51,1.58 2.65,3.53 3.44,5.83 0.78,2.3 1.17,5.14 1.17,8.51 0,2.97 -0.37,5.52 -1.11,7.66 -0.9,2.62 -2.18,4.75 -3.85,6.36 -1.26,1.23 -2.96,2.19 -5.1,2.87 -1.6,0.51 -3.74,0.76 -6.42,0.76l-13.66 0 0 -36.02zm7.29 6.09l0 23.85 5.41 0c2.02,0 3.48,-0.12 4.38,-0.34 1.18,-0.29 2.16,-0.8 2.93,-1.5 0.78,-0.7 1.41,-1.86 1.9,-3.47 0.5,-1.61 0.74,-3.81 0.74,-6.6 0,-2.78 -0.24,-4.91 -0.74,-6.41 -0.49,-1.49 -1.17,-2.65 -2.05,-3.49 -0.88,-0.83 -1.99,-1.4 -3.35,-1.69 -1.01,-0.23 -2.99,-0.34 -5.95,-0.34l-3.25 0z"/>
   <path class="fil3" d="M170.63 474.58l13.46 0c2.67,0 4.65,0.11 5.96,0.33 1.32,0.23 2.48,0.69 3.52,1.39 1.03,0.7 1.9,1.64 2.58,2.81 0.69,1.17 1.04,2.48 1.04,3.93 0,1.57 -0.42,3.02 -1.27,4.33 -0.85,1.32 -2,2.29 -3.45,2.95 2.05,0.6 3.61,1.62 4.72,3.06 1.1,1.44 1.64,3.13 1.64,5.08 0,1.54 -0.35,3.03 -1.06,4.48 -0.71,1.45 -1.69,2.61 -2.92,3.48 -1.23,0.86 -2.75,1.39 -4.56,1.6 -1.13,0.12 -3.87,0.2 -8.2,0.23l-11.46 0 0 -33.67zm6.82 5.59l0 7.76 4.45 0c2.64,0 4.29,-0.04 4.93,-0.12 1.16,-0.13 2.08,-0.53 2.74,-1.2 0.67,-0.67 0.99,-1.54 0.99,-2.62 0,-1.04 -0.29,-1.88 -0.86,-2.53 -0.57,-0.65 -1.43,-1.04 -2.55,-1.18 -0.67,-0.08 -2.61,-0.12 -5.8,-0.12l-3.9 0zm0 13.35l0 9.03 6.3 0c2.45,0 4,-0.07 4.66,-0.21 1.01,-0.19 1.83,-0.63 2.47,-1.35 0.63,-0.72 0.96,-1.67 0.96,-2.87 0,-1.02 -0.24,-1.87 -0.74,-2.58 -0.49,-0.7 -1.2,-1.22 -2.12,-1.54 -0.92,-0.32 -2.94,-0.49 -6.03,-0.49l-5.49 0z"/>
   <path id="_1_0" class="fil3" d="M203.17 491.62c0,-3.43 0.52,-6.31 1.54,-8.65 0.76,-1.72 1.81,-3.26 3.13,-4.62 1.32,-1.36 2.77,-2.37 4.35,-3.04 2.1,-0.89 4.52,-1.33 7.26,-1.33 4.97,0 8.93,1.54 11.92,4.62 2.98,3.09 4.46,7.37 4.46,12.87 0,5.44 -1.48,9.71 -4.43,12.78 -2.96,3.08 -6.91,4.62 -11.86,4.62 -5.01,0 -9,-1.53 -11.95,-4.59 -2.95,-3.06 -4.43,-7.27 -4.43,-12.65zm7.01 -0.23c0,3.82 0.89,6.71 2.65,8.68 1.76,1.97 4,2.95 6.72,2.95 2.72,0 4.94,-0.98 6.69,-2.93 1.74,-1.96 2.61,-4.89 2.61,-8.8 0,-3.86 -0.85,-6.75 -2.55,-8.64 -1.69,-1.9 -3.94,-2.85 -6.76,-2.85 -2.81,0 -5.07,0.96 -6.79,2.88 -1.72,1.93 -2.58,4.83 -2.58,8.71z"/>
   <polygon id="_2_1" class="fil3" points="241.16,508.25 241.16,474.58 247.75,474.58 261.61,497.14 261.61,474.58 267.91,474.58 267.91,508.25 261.1,508.25 247.46,486.12 247.46,508.25 "/>
   <path id="_3_2" class="fil3" d="M275.11 474.58l6.82 0 0 18.24c0,2.9 0.09,4.77 0.25,5.63 0.29,1.38 0.97,2.49 2.05,3.32 1.09,0.84 2.57,1.25 4.45,1.25 1.9,0 3.35,-0.39 4.32,-1.18 0.97,-0.79 1.55,-1.76 1.75,-2.91 0.2,-1.15 0.3,-3.06 0.3,-5.72l0 -18.63 6.82 0 0 17.7c0,4.04 -0.18,6.9 -0.55,8.57 -0.37,1.67 -1.04,3.08 -2.03,4.23 -0.98,1.15 -2.3,2.06 -3.94,2.74 -1.65,0.68 -3.8,1.03 -6.46,1.03 -3.2,0 -5.63,-0.37 -7.29,-1.11 -1.65,-0.74 -2.96,-1.71 -3.93,-2.9 -0.96,-1.19 -1.59,-2.43 -1.9,-3.74 -0.45,-1.93 -0.67,-4.78 -0.67,-8.55l0 -17.98z"/>
   <path id="_4_3" class="fil3" d="M307.28 497.34l6.63 -0.66c0.4,2.22 1.2,3.84 2.41,4.88 1.21,1.04 2.85,1.56 4.91,1.56 2.18,0 3.82,-0.46 4.93,-1.39 1.1,-0.92 1.66,-2 1.66,-3.24 0,-0.8 -0.23,-1.47 -0.7,-2.04 -0.46,-0.56 -1.28,-1.04 -2.44,-1.45 -0.79,-0.28 -2.59,-0.77 -5.41,-1.47 -3.63,-0.91 -6.18,-2.02 -7.64,-3.35 -2.06,-1.86 -3.09,-4.12 -3.09,-6.79 0,-1.72 0.49,-3.33 1.45,-4.83 0.97,-1.5 2.37,-2.63 4.19,-3.42 1.83,-0.79 4.02,-1.18 6.61,-1.18 4.21,0 7.38,0.93 9.51,2.81 2.13,1.87 3.24,4.36 3.35,7.49l-6.82 0.24c-0.29,-1.74 -0.91,-2.99 -1.86,-3.75 -0.95,-0.76 -2.37,-1.15 -4.27,-1.15 -1.96,0 -3.49,0.41 -4.6,1.22 -0.71,0.53 -1.07,1.22 -1.07,2.1 0,0.8 0.34,1.48 1.01,2.04 0.85,0.73 2.93,1.48 6.23,2.27 3.3,0.77 5.74,1.59 7.31,2.42 1.58,0.84 2.82,1.97 3.71,3.42 0.89,1.45 1.34,3.24 1.34,5.36 0,1.93 -0.53,3.74 -1.61,5.42 -1.08,1.69 -2.59,2.94 -4.55,3.75 -1.96,0.82 -4.4,1.23 -7.33,1.23 -4.26,0 -7.52,-0.98 -9.8,-2.95 -2.28,-1.96 -3.64,-4.82 -4.08,-8.57z"/>
   <path id="_5_4" class="fil3" d="M352.08 482.83c0,-3.01 0.67,-5.23 1.99,-6.69 1.33,-1.45 3.12,-2.18 5.39,-2.18 2.34,0 4.17,0.72 5.5,2.16 1.32,1.44 1.98,3.68 1.98,6.7 0,3.01 -0.66,5.23 -1.98,6.69 -1.33,1.45 -3.13,2.18 -5.39,2.18 -2.34,0 -4.17,-0.72 -5.49,-2.16 -1.32,-1.44 -1.99,-3.68 -1.99,-6.7zm5.03 0c0,2.17 0.25,3.63 0.76,4.37 0.38,0.55 0.92,0.82 1.59,0.82 0.69,0 1.23,-0.27 1.61,-0.82 0.5,-0.75 0.74,-2.2 0.74,-4.37 0,-2.17 -0.24,-3.62 -0.74,-4.35 -0.38,-0.56 -0.92,-0.85 -1.61,-0.85 -0.67,0 -1.21,0.27 -1.59,0.82 -0.51,0.75 -0.76,2.2 -0.76,4.37zm7.27 26.73l-4.77 0 17.92 -35.59 4.67 0 -17.82 35.59zm10.41 -8.88c0,-3.02 0.67,-5.25 1.99,-6.71 1.32,-1.46 3.13,-2.19 5.43,-2.19 2.31,0 4.13,0.73 5.45,2.19 1.32,1.46 1.98,3.69 1.98,6.71 0,3.04 -0.66,5.28 -1.98,6.74 -1.32,1.46 -3.13,2.19 -5.39,2.19 -2.34,0 -4.17,-0.73 -5.49,-2.19 -1.32,-1.46 -1.99,-3.7 -1.99,-6.74zm5.03 0.02c0,2.19 0.25,3.66 0.76,4.39 0.38,0.57 0.92,0.86 1.59,0.86 0.69,0 1.22,-0.27 1.59,-0.83 0.51,-0.74 0.76,-2.22 0.76,-4.41 0,-2.19 -0.24,-3.67 -0.74,-4.41 -0.38,-0.56 -0.92,-0.83 -1.61,-0.83 -0.69,0 -1.22,0.27 -1.59,0.83 -0.51,0.74 -0.76,2.22 -0.76,4.41z"/>
   <path id="_6_5" class="fil3" d="M170.63 560.77l0 -33.67 14.32 0c3.6,0 6.21,0.31 7.85,0.91 1.64,0.6 2.94,1.68 3.92,3.22 0.98,1.55 1.47,3.32 1.47,5.3 0,2.53 -0.74,4.62 -2.22,6.26 -1.48,1.64 -3.69,2.68 -6.64,3.11 1.47,0.86 2.67,1.8 3.62,2.82 0.96,1.03 2.24,2.85 3.85,5.47l4.11 6.57 -8.13 0 -4.88 -7.35c-1.75,-2.61 -2.94,-4.26 -3.6,-4.94 -0.64,-0.67 -1.32,-1.15 -2.04,-1.4 -0.73,-0.25 -1.87,-0.38 -3.44,-0.38l-1.38 0 0 14.06 -6.82 0zm6.82 -19.42l5.03 0c3.26,0 5.29,-0.14 6.1,-0.41 0.81,-0.27 1.45,-0.75 1.9,-1.43 0.46,-0.67 0.69,-1.52 0.69,-2.53 0,-1.14 -0.31,-2.05 -0.91,-2.75 -0.6,-0.7 -1.46,-1.14 -2.55,-1.32 -0.56,-0.08 -2.21,-0.12 -4.96,-0.12l-5.3 0 0 8.56z"/>
   <polygon id="_7_6" class="fil3" points="204.58,560.77 204.58,527.11 229.5,527.11 229.5,532.8 211.4,532.8 211.4,540.27 228.23,540.27 228.23,545.96 211.4,545.96 211.4,555.08 230.16,555.08 230.16,560.77 "/>
   <polygon id="_8_7" class="fil3" points="243.51,560.77 243.51,532.8 233.55,532.8 233.55,527.11 260.25,527.11 260.25,532.8 250.33,532.8 250.33,560.77 "/>
   <path id="_9_8" class="fil3" d="M264.67 527.11l6.82 0 0 18.24c0,2.9 0.09,4.77 0.25,5.63 0.29,1.38 0.97,2.49 2.05,3.32 1.09,0.84 2.57,1.25 4.45,1.25 1.9,0 3.35,-0.39 4.32,-1.18 0.97,-0.79 1.55,-1.76 1.75,-2.91 0.2,-1.15 0.3,-3.06 0.3,-5.72l0 -18.63 6.82 0 0 17.7c0,4.04 -0.18,6.9 -0.55,8.57 -0.37,1.67 -1.04,3.08 -2.03,4.23 -0.98,1.15 -2.3,2.06 -3.94,2.74 -1.65,0.68 -3.8,1.03 -6.46,1.03 -3.2,0 -5.63,-0.37 -7.29,-1.11 -1.65,-0.74 -2.96,-1.71 -3.93,-2.9 -0.96,-1.19 -1.59,-2.43 -1.9,-3.74 -0.45,-1.93 -0.67,-4.78 -0.67,-8.55l0 -17.98z"/>
   <path id="_10_9" class="fil3" d="M298.62 560.77l0 -33.67 14.32 0c3.6,0 6.21,0.31 7.85,0.91 1.64,0.6 2.94,1.68 3.92,3.22 0.98,1.55 1.47,3.32 1.47,5.3 0,2.53 -0.74,4.62 -2.22,6.26 -1.48,1.64 -3.69,2.68 -6.64,3.11 1.47,0.86 2.67,1.8 3.62,2.82 0.96,1.03 2.24,2.85 3.85,5.47l4.11 6.57 -8.13 0 -4.88 -7.35c-1.75,-2.61 -2.94,-4.26 -3.6,-4.94 -0.64,-0.67 -1.32,-1.15 -2.04,-1.4 -0.73,-0.25 -1.87,-0.38 -3.44,-0.38l-1.38 0 0 14.06 -6.82 0zm6.82 -19.42l5.03 0c3.26,0 5.29,-0.14 6.1,-0.41 0.81,-0.27 1.45,-0.75 1.9,-1.43 0.46,-0.67 0.69,-1.52 0.69,-2.53 0,-1.14 -0.31,-2.05 -0.91,-2.75 -0.6,-0.7 -1.46,-1.14 -2.55,-1.32 -0.56,-0.08 -2.21,-0.12 -4.96,-0.12l-5.3 0 0 8.56z"/>
   <polygon id="_11_10" class="fil3" points="332.58,560.77 332.58,527.11 339.17,527.11 353.03,549.67 353.03,527.11 359.33,527.11 359.33,560.77 352.52,560.77 338.88,538.64 338.88,560.77 "/>
   <polygon class="fil3" points="160.19,1713.89 160.19,1684.45 149.7,1684.45 149.7,1678.46 177.8,1678.46 177.8,1684.45 167.36,1684.45 167.36,1713.89 "/>
   <path id="_1_11" class="fil3" d="M180.07 1696.39c0,-3.61 0.55,-6.65 1.63,-9.1 0.8,-1.81 1.91,-3.43 3.3,-4.87 1.39,-1.44 2.92,-2.5 4.58,-3.2 2.21,-0.93 4.76,-1.4 7.64,-1.4 5.23,0 9.4,1.63 12.54,4.87 3.13,3.25 4.7,7.76 4.7,13.54 0,5.73 -1.56,10.22 -4.67,13.45 -3.11,3.24 -7.27,4.86 -12.48,4.86 -5.27,0 -9.47,-1.61 -12.58,-4.83 -3.11,-3.22 -4.67,-7.65 -4.67,-13.31zm7.37 -0.24c0,4.02 0.93,7.06 2.79,9.14 1.86,2.07 4.21,3.11 7.07,3.11 2.86,0 5.2,-1.03 7.04,-3.08 1.83,-2.06 2.75,-5.15 2.75,-9.26 0,-4.06 -0.89,-7.1 -2.68,-9.1 -1.78,-2 -4.15,-3 -7.11,-3 -2.95,0 -5.34,1.01 -7.14,3.03 -1.81,2.03 -2.71,5.08 -2.71,9.16z"/>
   <polygon id="_2_12" class="fil3" points="228.01,1713.89 228.01,1684.45 217.52,1684.45 217.52,1678.46 245.62,1678.46 245.62,1684.45 235.18,1684.45 235.18,1713.89 "/>
   <path id="_3_13" class="fil3" d="M278.51 1713.89l-7.73 0 -3.06 -8.06 -14.21 0 -2.94 8.06 -7.59 0 13.75 -35.43 7.58 0 14.19 35.43zm-13.11 -14.05l-4.92 -13.11 -4.78 13.11 9.71 0z"/>
   <polygon id="_4_14" class="fil3" points="282.53,1713.89 282.53,1678.76 289.7,1678.76 289.7,1707.9 307.46,1707.9 307.46,1713.89 "/>
   <path id="_5_15" class="fil3" d="M355.48 1713.89l-7.73 0 -3.06 -8.06 -14.21 0 -2.94 8.06 -7.59 0 13.75 -35.43 7.58 0 14.19 35.43zm-13.11 -14.05l-4.92 -13.11 -4.78 13.11 9.71 0z"/>
   <polygon id="_6_16" class="fil3" points="359.3,1713.89 359.3,1678.46 366.24,1678.46 380.82,1702.21 380.82,1678.46 387.45,1678.46 387.45,1713.89 380.29,1713.89 365.93,1690.6 365.93,1713.89 "/>
   <polygon id="_7_17" class="fil3" points="395.03,1713.89 395.03,1678.46 401.98,1678.46 416.56,1702.21 416.56,1678.46 423.19,1678.46 423.19,1713.89 416.02,1713.89 401.66,1690.6 401.66,1713.89 "/>
   <path id="_8_18" class="fil3" d="M430.77 1678.46l7.17 0 0 19.2c0,3.05 0.09,5.02 0.26,5.92 0.31,1.45 1.02,2.62 2.16,3.5 1.15,0.88 2.7,1.32 4.68,1.32 2,0 3.52,-0.41 4.54,-1.25 1.02,-0.83 1.63,-1.85 1.84,-3.06 0.21,-1.21 0.31,-3.22 0.31,-6.02l0 -19.61 7.17 0 0 18.63c0,4.26 -0.19,7.27 -0.58,9.02 -0.39,1.76 -1.09,3.24 -2.14,4.45 -1.03,1.21 -2.41,2.17 -4.15,2.89 -1.74,0.72 -4,1.08 -6.8,1.08 -3.37,0 -5.93,-0.39 -7.67,-1.17 -1.74,-0.78 -3.12,-1.8 -4.13,-3.05 -1.01,-1.25 -1.67,-2.56 -2,-3.93 -0.47,-2.03 -0.7,-5.03 -0.7,-9l0 -18.92z"/>
   <path id="_9_19" class="fil3" d="M498.41 1713.89l-7.73 0 -3.06 -8.06 -14.21 0 -2.94 8.06 -7.59 0 13.75 -35.43 7.58 0 14.19 35.43zm-13.11 -14.05l-4.92 -13.11 -4.78 13.11 9.71 0z"/>
   <polygon id="_10_20" class="fil3" points="502.43,1713.89 502.43,1678.76 509.61,1678.76 509.61,1707.9 527.37,1707.9 527.37,1713.89 "/>
   <path id="_11_21" class="fil3" d="M545.31 1713.89l0 -35.43 11.47 0c4.35,0 7.17,0.17 8.49,0.53 2.03,0.54 3.73,1.69 5.1,3.47 1.37,1.78 2.05,4.08 2.05,6.9 0,2.18 -0.4,4 -1.18,5.48 -0.79,1.49 -1.79,2.65 -3,3.5 -1.21,0.84 -2.45,1.4 -3.7,1.68 -1.71,0.34 -4.17,0.51 -7.41,0.51l-4.65 0 0 13.36 -7.17 0zm7.17 -29.44l0 10.09 3.9 0c2.81,0 4.69,-0.19 5.63,-0.56 0.95,-0.37 1.69,-0.95 2.22,-1.75 0.54,-0.79 0.81,-1.71 0.81,-2.76 0,-1.29 -0.38,-2.36 -1.13,-3.2 -0.76,-0.84 -1.71,-1.37 -2.87,-1.58 -0.85,-0.16 -2.56,-0.24 -5.13,-0.24l-3.44 0z"/>
   <path id="_12_22" class="fil3" d="M578.31 1713.89l0 -35.43 15.07 0c3.79,0 6.54,0.32 8.26,0.96 1.72,0.63 3.09,1.76 4.12,3.39 1.03,1.63 1.55,3.49 1.55,5.58 0,2.66 -0.78,4.86 -2.33,6.59 -1.56,1.73 -3.88,2.82 -6.98,3.27 1.54,0.9 2.81,1.89 3.81,2.97 1.01,1.08 2.36,3 4.06,5.76l4.32 6.91 -8.55 0 -5.13 -7.73c-1.84,-2.75 -3.1,-4.48 -3.78,-5.2 -0.68,-0.71 -1.39,-1.2 -2.15,-1.47 -0.77,-0.26 -1.97,-0.4 -3.62,-0.4l-1.45 0 0 14.8 -7.17 0zm7.17 -20.43l5.29 0c3.43,0 5.57,-0.15 6.42,-0.44 0.85,-0.29 1.53,-0.79 2,-1.5 0.49,-0.71 0.73,-1.6 0.73,-2.66 0,-1.2 -0.32,-2.15 -0.96,-2.89 -0.63,-0.74 -1.53,-1.2 -2.69,-1.39 -0.59,-0.08 -2.33,-0.12 -5.22,-0.12l-5.58 0 0 9.01z"/>
   <path id="_13_23" class="fil3" d="M612.56 1696.39c0,-3.61 0.55,-6.65 1.63,-9.1 0.8,-1.81 1.91,-3.43 3.3,-4.87 1.39,-1.44 2.92,-2.5 4.58,-3.2 2.21,-0.93 4.76,-1.4 7.64,-1.4 5.23,0 9.4,1.63 12.54,4.87 3.13,3.25 4.7,7.76 4.7,13.54 0,5.73 -1.56,10.22 -4.67,13.45 -3.11,3.24 -7.27,4.86 -12.48,4.86 -5.27,0 -9.47,-1.61 -12.58,-4.83 -3.11,-3.22 -4.67,-7.65 -4.67,-13.31zm7.37 -0.24c0,4.02 0.93,7.06 2.79,9.14 1.86,2.07 4.21,3.11 7.07,3.11 2.86,0 5.2,-1.03 7.04,-3.08 1.83,-2.06 2.75,-5.15 2.75,-9.26 0,-4.06 -0.89,-7.1 -2.68,-9.1 -1.78,-2 -4.15,-3 -7.11,-3 -2.95,0 -5.34,1.01 -7.14,3.03 -1.81,2.03 -2.71,5.08 -2.71,9.16z"/>
   <polygon id="_14_24" class="fil3" points="652.53,1713.89 652.53,1678.46 676.88,1678.46 676.88,1684.45 659.71,1684.45 659.71,1692.86 674.55,1692.86 674.55,1698.85 659.71,1698.85 659.71,1713.89 "/>
   <polygon id="_15_25" class="fil3" points="682.51,1713.89 682.51,1678.46 689.68,1678.46 689.68,1713.89 "/>
   <polygon id="_16_26" class="fil3" points="704.47,1713.89 704.47,1684.45 693.98,1684.45 693.98,1678.46 722.08,1678.46 722.08,1684.45 711.64,1684.45 711.64,1713.89 "/>
   <path id="_17_27" class="fil3" d="M724.85 1702.41l6.98 -0.69c0.42,2.33 1.26,4.04 2.54,5.14 1.28,1.1 3,1.64 5.17,1.64 2.29,0 4.02,-0.49 5.19,-1.46 1.16,-0.97 1.75,-2.11 1.75,-3.41 0,-0.84 -0.25,-1.55 -0.74,-2.14 -0.49,-0.58 -1.34,-1.1 -2.56,-1.52 -0.83,-0.3 -2.73,-0.81 -5.7,-1.55 -3.82,-0.96 -6.5,-2.13 -8.04,-3.52 -2.17,-1.95 -3.25,-4.34 -3.25,-7.15 0,-1.81 0.51,-3.51 1.53,-5.08 1.02,-1.57 2.49,-2.77 4.41,-3.6 1.92,-0.82 4.23,-1.24 6.95,-1.24 4.43,0 7.77,0.98 10,2.95 2.24,1.97 3.41,4.59 3.53,7.88l-7.18 0.25c-0.3,-1.83 -0.96,-3.14 -1.95,-3.94 -1,-0.8 -2.5,-1.2 -4.49,-1.2 -2.06,0 -3.68,0.43 -4.84,1.29 -0.75,0.55 -1.13,1.29 -1.13,2.21 0,0.84 0.35,1.56 1.06,2.15 0.9,0.77 3.08,1.56 6.55,2.38 3.47,0.82 6.04,1.67 7.69,2.55 1.67,0.88 2.97,2.08 3.91,3.6 0.94,1.53 1.41,3.41 1.41,5.64 0,2.03 -0.56,3.93 -1.69,5.71 -1.13,1.77 -2.72,3.09 -4.78,3.95 -2.06,0.87 -4.64,1.3 -7.71,1.3 -4.48,0 -7.92,-1.03 -10.32,-3.1 -2.4,-2.06 -3.83,-5.07 -4.3,-9.02z"/>
   <polygon id="_18_28" class="fil3" points="773.47,1713.89 773.47,1678.46 799.7,1678.46 799.7,1684.45 780.65,1684.45 780.65,1692.32 798.36,1692.32 798.36,1698.31 780.65,1698.31 780.65,1707.9 800.39,1707.9 800.39,1713.89 "/>
   <path id="_19_29" class="fil3" d="M838.39 1713.89l-7.73 0 -3.06 -8.06 -14.21 0 -2.94 8.06 -7.59 0 13.75 -35.43 7.58 0 14.19 35.43zm-13.11 -14.05l-4.92 -13.11 -4.78 13.11 9.71 0z"/>
   <path id="_20_30" class="fil3" d="M842.21 1713.89l0 -35.43 15.07 0c3.79,0 6.54,0.32 8.26,0.96 1.72,0.63 3.09,1.76 4.12,3.39 1.03,1.63 1.55,3.49 1.55,5.58 0,2.66 -0.78,4.86 -2.33,6.59 -1.56,1.73 -3.88,2.82 -6.98,3.27 1.54,0.9 2.81,1.89 3.81,2.97 1.01,1.08 2.36,3 4.06,5.76l4.32 6.91 -8.55 0 -5.13 -7.73c-1.84,-2.75 -3.1,-4.48 -3.78,-5.2 -0.68,-0.71 -1.39,-1.2 -2.15,-1.47 -0.77,-0.26 -1.97,-0.4 -3.62,-0.4l-1.45 0 0 14.8 -7.17 0zm7.17 -20.43l5.29 0c3.43,0 5.57,-0.15 6.42,-0.44 0.85,-0.29 1.53,-0.79 2,-1.5 0.49,-0.71 0.73,-1.6 0.73,-2.66 0,-1.2 -0.32,-2.15 -0.96,-2.89 -0.63,-0.74 -1.53,-1.2 -2.69,-1.39 -0.59,-0.08 -2.33,-0.12 -5.22,-0.12l-5.58 0 0 9.01z"/>
   <polygon id="_21_31" class="fil3" points="877.94,1713.89 877.94,1678.46 884.89,1678.46 899.47,1702.21 899.47,1678.46 906.1,1678.46 906.1,1713.89 898.93,1713.89 884.57,1690.6 884.57,1713.89 "/>
   <polygon id="_22_32" class="fil3" points="913.68,1713.89 913.68,1678.46 939.9,1678.46 939.9,1684.45 920.85,1684.45 920.85,1692.32 938.56,1692.32 938.56,1698.31 920.85,1698.31 920.85,1707.9 940.59,1707.9 940.59,1713.89 "/>
   <path id="_23_33" class="fil3" d="M946.68 1678.46l13.05 0c2.94,0 5.19,0.22 6.73,0.68 2.07,0.61 3.85,1.7 5.33,3.27 1.49,1.56 2.61,3.47 3.38,5.74 0.77,2.26 1.16,5.05 1.16,8.37 0,2.92 -0.36,5.43 -1.09,7.54 -0.88,2.58 -2.14,4.67 -3.79,6.26 -1.24,1.21 -2.91,2.15 -5.01,2.83 -1.57,0.5 -3.68,0.75 -6.32,0.75l-13.43 0 0 -35.43zm7.17 5.99l0 23.45 5.32 0c1.99,0 3.42,-0.12 4.3,-0.34 1.16,-0.29 2.12,-0.78 2.88,-1.48 0.77,-0.69 1.39,-1.83 1.86,-3.41 0.49,-1.58 0.73,-3.75 0.73,-6.49 0,-2.74 -0.24,-4.83 -0.73,-6.3 -0.48,-1.47 -1.15,-2.6 -2.02,-3.43 -0.87,-0.82 -1.96,-1.38 -3.3,-1.67 -0.99,-0.22 -2.94,-0.34 -5.85,-0.34l-3.2 0z"/>
  </g>
  <path class="fil4" d="M1153.41 5.25l0 1830.63 -1148.16 0 0 -1830.63 1148.16 0zm-1153.41 1835.87l1158.65 0 0 -1841.12 -1158.65 0 0 1841.12z"/>
 </g>
</svg>
