<?xml version="1.0" encoding="UTF-8"?>
<!DOCTYPE svg PUBLIC "-//W3C//DTD SVG 1.1//EN" "http://www.w3.org/Graphics/SVG/1.1/DTD/svg11.dtd">
<!-- Creator: CorelDRAW 2021 (64-Bit) -->
<svg xmlns="http://www.w3.org/2000/svg" xml:space="preserve" width="4.7436in" height="2.69678in" version="1.1" style="shape-rendering:geometricPrecision; text-rendering:geometricPrecision; image-rendering:optimizeQuality; fill-rule:evenodd; clip-rule:evenodd"
viewBox="0 0 4747.4 2698.95"
 xmlns:xlink="http://www.w3.org/1999/xlink"
 xmlns:xodm="http://www.corel.com/coreldraw/odm/2003">
 <defs>
  <style type="text/css">
   <![CDATA[
    .fil0 {fill:#6D6B6B;fill-rule:nonzero}
   ]]>
  </style>
 </defs>
 <g id="Layer_x0020_1">
  <metadata id="CorelCorpID_0Corel-Layer"/>
  <g>
   <path id="Rectangle_46" class="fil0" d="M31.28 31.27l0 2636.41 4684.85 0 0 -2636.41 -4684.85 0 0 0zm-31.28 -31.27l4747.4 0 0 2698.95 -4747.4 0 0 -2698.95z" data-name="Rectangle 46"/>
  </g>
  <g>
   <g id="YouTube_Logo" data-name="YouTube Logo">
    <path id="Subtraction_1" class="fil0" d="M2373.69 1544.94c-0.44,0 -44.22,-0.02 -92.76,-1.46 -28.51,-0.85 -53.06,-2.01 -72.96,-3.46 -24.88,-1.81 -42.53,-4.08 -52.46,-6.75 -24.08,-6.47 -42.9,-25.3 -49.37,-49.38 -3.15,-12.89 -5.46,-26.16 -6.75,-39.39 -1.45,-12.94 -2.62,-27.79 -3.46,-44.15 -1.44,-27.84 -1.46,-50.65 -1.46,-50.88 0,-0.23 0.02,-23.04 1.46,-50.88 1.33,-25.69 4.17,-61.05 10.21,-83.54 6.47,-24.07 25.31,-42.9 49.38,-49.37 9.94,-2.66 27.59,-4.94 52.48,-6.75 19.89,-1.45 44.44,-2.62 72.95,-3.46 48.54,-1.44 92.33,-1.46 92.76,-1.46 0.44,0 44.23,0.02 92.76,1.46 28.51,0.85 53.06,2.01 72.96,3.46 24.88,1.82 42.53,4.09 52.46,6.75 24.08,6.47 42.9,25.3 49.37,49.37 3.16,12.89 5.47,26.16 6.76,39.39 1.45,12.96 2.62,27.81 3.46,44.17 1.44,27.83 1.46,50.66 1.46,50.88 0,0.21 -0.02,23.03 -1.46,50.88 -1.33,25.69 -4.18,61.05 -10.21,83.54 -6.48,24.06 -25.3,42.88 -49.38,49.36 -9.94,2.66 -27.59,4.93 -52.47,6.75 -19.91,1.45 -44.45,2.62 -72.96,3.46 -48.54,1.45 -92.33,1.47 -92.77,1.47zm-55.84 -279.23l0 167.54 145.08 -83.77 -145.08 -83.77z" data-name="Subtraction 1"/>
   </g>
  </g>
 </g>
</svg>
